<?xml version="1.0" encoding="UTF-8" standalone="no"?>
<!-- Created with Inkscape (http://www.inkscape.org/) -->
<svg
   xmlns:dc="http://purl.org/dc/elements/1.1/"
   xmlns:cc="http://web.resource.org/cc/"
   xmlns:rdf="http://www.w3.org/1999/02/22-rdf-syntax-ns#"
   xmlns:svg="http://www.w3.org/2000/svg"
   xmlns="http://www.w3.org/2000/svg"
   xmlns:xlink="http://www.w3.org/1999/xlink"
   xmlns:sodipodi="http://sodipodi.sourceforge.net/DTD/sodipodi-0.dtd"
   xmlns:inkscape="http://www.inkscape.org/namespaces/inkscape"
   width="744.09448819"
   height="1052.3622047"
   id="svg1362"
   sodipodi:version="0.32"
   inkscape:version="0.44.1"
   sodipodi:docbase="/home/yana/workspace/SCProject/src/net/java/sip/communicator/impl/gui/resources/common/logo"
   sodipodi:docname="sc_logo.svg">
  <defs
     id="defs1364">
    <linearGradient
       inkscape:collect="always"
       xlink:href="#linearGradient2937"
       id="linearGradient12595"
       gradientUnits="userSpaceOnUse"
       gradientTransform="translate(-35.81825,-253.4089)"
       x1="338.14404"
       y1="668.30090"
       x2="266.21500"
       y2="702.89276" />
    <linearGradient
       inkscape:collect="always"
       xlink:href="#linearGradient2937"
       id="linearGradient12593"
       gradientUnits="userSpaceOnUse"
       gradientTransform="translate(260.2799,-327.2023)"
       x1="279.81714"
       y1="688.32355"
       x2="386.78625"
       y2="667.63550" />
    <linearGradient
       inkscape:collect="always"
       xlink:href="#linearGradient2937"
       id="linearGradient12591"
       gradientUnits="userSpaceOnUse"
       gradientTransform="matrix(-0.377706,-2.864599e-2,5.725924e-2,-0.754981,617.9483,841.0397)"
       x1="301.05194"
       y1="645.89917"
       x2="367.94604"
       y2="654.72131" />
    <linearGradient
       inkscape:collect="always"
       xlink:href="#linearGradient2937"
       id="linearGradient12589"
       gradientUnits="userSpaceOnUse"
       gradientTransform="matrix(0.378791,0,0,0.757149,397.1425,-232.6481)"
       x1="246.30438"
       y1="690.02673"
       x2="366.87921"
       y2="632.15985" />
    <linearGradient
       id="linearGradient2937">
      <stop
         style="stop-color:#212a3a;stop-opacity:1.0000000;"
         offset="0.0000000"
         id="stop2939" />
      <stop
         style="stop-color:#404e67;stop-opacity:0.0000000;"
         offset="1.0000000"
         id="stop2941" />
    </linearGradient>
    <linearGradient
       inkscape:collect="always"
       xlink:href="#linearGradient2937"
       id="linearGradient12587"
       gradientUnits="userSpaceOnUse"
       x1="297.05316"
       y1="667.16193"
       x2="310.45529"
       y2="713.86633" />
    <linearGradient
       inkscape:collect="always"
       xlink:href="#linearGradient3651"
       id="linearGradient12585"
       gradientUnits="userSpaceOnUse"
       x1="511.90863"
       y1="447.91867"
       x2="400.04312"
       y2="302.47498" />
    <linearGradient
       inkscape:collect="always"
       xlink:href="#linearGradient3651"
       id="linearGradient12583"
       gradientUnits="userSpaceOnUse"
       x1="522.63641"
       y1="168.68723"
       x2="585.93317"
       y2="161.10866" />
    <linearGradient
       inkscape:collect="always"
       xlink:href="#linearGradient3651"
       id="linearGradient12581"
       gradientUnits="userSpaceOnUse"
       x1="427.58920"
       y1="494.52457"
       x2="478.62225"
       y2="667.08844" />
    <linearGradient
       id="linearGradient7434">
      <stop
         id="stop7436"
         offset="0.0000000"
         style="stop-color:#ffc768;stop-opacity:1.0000000;" />
      <stop
         style="stop-color:#ff8400;stop-opacity:1.0000000;"
         offset="0.50000000"
         id="stop7438" />
      <stop
         id="stop7440"
         offset="0.75000000"
         style="stop-color:#ff8400;stop-opacity:1.0000000;" />
      <stop
         id="stop7442"
         offset="1.0000000"
         style="stop-color:#ffc768;stop-opacity:1.0000000;" />
    </linearGradient>
    <linearGradient
       inkscape:collect="always"
       xlink:href="#linearGradient7434"
       id="linearGradient12579"
       gradientUnits="userSpaceOnUse"
       x1="197.17841"
       y1="703.80151"
       x2="146.54216"
       y2="785.90436" />
    <linearGradient
       id="linearGradient3651">
      <stop
         style="stop-color:#ff8400;stop-opacity:1.0000000;"
         offset="0.0000000"
         id="stop3653" />
      <stop
         id="stop16786"
         offset="0.50000000"
         style="stop-color:#ffc768;stop-opacity:1.0000000;" />
      <stop
         style="stop-color:#ffc768;stop-opacity:1.0000000;"
         offset="0.75000000"
         id="stop17514" />
      <stop
         style="stop-color:#ff8400;stop-opacity:1.0000000;"
         offset="1.0000000"
         id="stop3655" />
    </linearGradient>
    <linearGradient
       inkscape:collect="always"
       xlink:href="#linearGradient3651"
       id="linearGradient12577"
       gradientUnits="userSpaceOnUse"
       x1="398.54004"
       y1="780.45007"
       x2="308.98642"
       y2="420.01578" />
    <linearGradient
       id="linearGradient5041">
      <stop
         style="stop-color:#143e7b;stop-opacity:1.0000000;"
         offset="0.0000000"
         id="stop5043" />
      <stop
         id="stop5047"
         offset="1.0000000"
         style="stop-color:#a2c7f2;stop-opacity:1.0000000;" />
    </linearGradient>
    <linearGradient
       inkscape:collect="always"
       xlink:href="#linearGradient5041"
       id="linearGradient12575"
       gradientUnits="userSpaceOnUse"
       gradientTransform="translate(-0.548101,0.659586)"
       x1="559.64185"
       y1="933.61621"
       x2="705.13171"
       y2="505.11523" />
    <linearGradient
       id="linearGradient8896">
      <stop
         id="stop8898"
         offset="0.0000000"
         style="stop-color:#143e7b;stop-opacity:1.0000000;" />
      <stop
         style="stop-color:#4571ac;stop-opacity:1.0000000;"
         offset="0.50000000"
         id="stop8902" />
      <stop
         id="stop12553"
         offset="0.50000000"
         style="stop-color:#4571ac;stop-opacity:1.0000000;" />
      <stop
         style="stop-color:#143e7b;stop-opacity:1.0000000;"
         offset="1.0000000"
         id="stop8900" />
    </linearGradient>
    <linearGradient
       inkscape:collect="always"
       xlink:href="#linearGradient8896"
       id="linearGradient12573"
       gradientUnits="userSpaceOnUse"
       x1="22.053253"
       y1="1019.4496"
       x2="213.29953"
       y2="716.66205" />
    <linearGradient
       id="linearGradient3643">
      <stop
         id="stop3510"
         offset="0.0000000"
         style="stop-color:#143e7b;stop-opacity:1.0000000;" />
      <stop
         style="stop-color:#4375b9;stop-opacity:1.0000000;"
         offset="0.50537872"
         id="stop1334" />
      <stop
         style="stop-color:#6a95c8;stop-opacity:1.0000000;"
         offset="0.72359401"
         id="stop4966" />
      <stop
         id="stop15307"
         offset="0.90244496"
         style="stop-color:#1c56ab;stop-opacity:1.0000000;" />
      <stop
         style="stop-color:#8da9cc;stop-opacity:0.95686275;"
         offset="0.92824608"
         id="stop15309" />
      <stop
         id="stop16043"
         offset="0.99991590"
         style="stop-color:#386ab2;stop-opacity:0.99215686;" />
      <stop
         style="stop-color:#1c56ab;stop-opacity:1.0000000;"
         offset="1.0000000"
         id="stop3647" />
    </linearGradient>
    <linearGradient
       inkscape:collect="always"
       xlink:href="#linearGradient3643"
       id="linearGradient12571"
       gradientUnits="userSpaceOnUse"
       gradientTransform="translate(45.71426,-157.1429)"
       x1="445.84717"
       y1="1000.7343"
       x2="331.00372"
       y2="501.43796" />
    <linearGradient
       inkscape:collect="always"
       xlink:href="#linearGradient2937"
       id="linearGradient1986"
       gradientUnits="userSpaceOnUse"
       gradientTransform="matrix(0.245729,0,0,0.245729,45.91014,338.9454)"
       x1="338.14404"
       y1="668.30090"
       x2="266.21500"
       y2="702.89276" />
    <linearGradient
       inkscape:collect="always"
       xlink:href="#linearGradient2937"
       id="linearGradient1989"
       gradientUnits="userSpaceOnUse"
       gradientTransform="matrix(0.245729,0,0,0.245729,118.67,320.8122)"
       x1="279.81714"
       y1="688.32355"
       x2="386.78625"
       y2="667.63550" />
    <linearGradient
       inkscape:collect="always"
       xlink:href="#linearGradient2937"
       id="linearGradient1992"
       gradientUnits="userSpaceOnUse"
       gradientTransform="matrix(-9.281332e-2,-7.03915e-3,1.407026e-2,-0.185521,206.5595,607.8831)"
       x1="301.05194"
       y1="645.89917"
       x2="367.94604"
       y2="654.72131" />
    <linearGradient
       inkscape:collect="always"
       xlink:href="#linearGradient2937"
       id="linearGradient1995"
       gradientUnits="userSpaceOnUse"
       gradientTransform="matrix(9.307993e-2,0,0,0.186053,152.3011,344.0469)"
       x1="246.30438"
       y1="690.02673"
       x2="366.87921"
       y2="632.15985" />
    <linearGradient
       inkscape:collect="always"
       xlink:href="#linearGradient2937"
       id="linearGradient1998"
       gradientUnits="userSpaceOnUse"
       x1="297.05316"
       y1="667.16193"
       x2="310.45529"
       y2="713.86633"
       gradientTransform="matrix(0.245729,0,0,0.245729,54.71172,401.2153)" />
  </defs>
  <sodipodi:namedview
     id="base"
     pagecolor="#ffffff"
     bordercolor="#666666"
     borderopacity="1.0"
     inkscape:pageopacity="0.0"
     inkscape:pageshadow="2"
     inkscape:zoom="2.2743067"
     inkscape:cx="225.75058"
     inkscape:cy="484.61346"
     inkscape:document-units="px"
     inkscape:current-layer="layer1"
     inkscape:window-width="1672"
     inkscape:window-height="993"
     inkscape:window-x="0"
     inkscape:window-y="0" />
  <metadata
     id="metadata1367">
    <rdf:RDF>
      <cc:Work
         rdf:about="">
        <dc:format>image/svg+xml</dc:format>
        <dc:type
           rdf:resource="http://purl.org/dc/dcmitype/StillImage" />
      </cc:Work>
    </rdf:RDF>
  </metadata>
  <g
     inkscape:label="Layer 1"
     inkscape:groupmode="layer"
     id="layer1">
    <rect
       style="opacity:1;fill:none;fill-opacity:1;fill-rule:nonzero;stroke:#2e3a4d;stroke-width:3.6211164;stroke-linecap:round;stroke-linejoin:round;stroke-miterlimit:4;stroke-dasharray:none;stroke-opacity:1"
       id="rect1488"
       width="241.40776"
       height="241.40776"
       x="302.38199"
       y="409.02988" />
    <g
       style="display:inline"
       id="g12555"
       transform="matrix(0.245729,0,0,0.245729,329.8242,402.62)"
       inkscape:export-filename="/home/yana/sc_logo139x208.png"
       inkscape:export-xdpi="139.00000"
       inkscape:export-ydpi="139.00000">
      <path
         inkscape:export-ydpi="19.25"
         inkscape:export-xdpi="19.25"
         inkscape:export-filename="/home/emcho/storage/images/sc_logo/sc_logo136x203.png"
         sodipodi:nodetypes="csssssssssssssssssssssssssssssssssccssssssssssccsssssssssccsssssssssscssssssssssccssssssscssssssssc"
         id="path4159"
         d="M 73.909567,980.42684 C 71.477517,975.07874 69.487667,970.26214 69.487667,969.72274 C 69.487667,969.18344 61.020537,924.65334 60.055754,913.21005 C 55.843533,863.24888 49.200223,858.46417 51.054993,813.91947 C 52.178593,786.93607 48.434547,777.73184 56.400067,755.66514 C 72.804377,710.22101 84.832267,692.33988 106.1504,681.70506 C 123.44482,673.07749 139.67085,674.2494 154.9004,685.22591 C 158.91435,688.11903 172.38215,697.23295 184.82872,705.47905 C 197.2754,713.72529 212.05804,723.72254 217.67909,727.69534 C 223.30014,731.66834 232.67576,737.40104 238.51392,740.43484 C 248.81219,745.78664 249.1928,745.86804 251.28119,743.16564 C 255.87006,737.22794 266.94673,720.5637 272.93612,712.60948 C 302.93703,672.76669 274.6825,677.19557 267.62164,675.11729 C 256.52067,671.84972 251.84474,667.06219 241.46919,654.90161 C 217.37097,626.65768 205.95051,595.23369 204.26305,556.40534 C 202.30342,511.31615 206.8377,474.95255 226.63686,454.25674 C 235.12293,445.38626 253.08668,432.50413 269.50951,423.51167 C 283.41792,415.89599 368.71974,399.98039 376.20579,403.28714 C 379.9456,404.93909 361.40101,355.92351 372.07308,292.19341 C 374.19316,279.53298 388.59266,240.35628 390.11419,237.69035 C 393.87089,231.10813 455.77609,209.9201 473.38563,199.57863 C 493.06121,188.02385 535.61168,160.19041 538.8172,139.48937 C 545.8615,93.997777 547.1119,74.557676 550.04829,72.849651 C 554.4185,70.30761 583.63208,130.53784 563.8583,187.33008 C 559.95592,198.53811 541.34546,224.5607 533.01234,235.44527 C 527.01176,243.28326 540.04345,246.94661 547.53992,258.26225 C 554.35778,268.55334 558.83997,293.71128 559.71515,306.7472 C 560.60875,320.05864 556.39673,347.3706 552.62397,352.72792 C 551.09594,354.89799 550.47003,357.02978 551.22462,357.49482 C 551.97537,357.95744 557.06097,357.35166 562.52599,356.14875 C 567.99091,354.94584 579.83636,353.03027 588.84916,351.89205 C 604.89365,349.86595 605.46847,349.89412 616.35711,353.24364 C 632.69163,358.26855 712.14514,377.46453 661.44529,599.48005 C 644.6482,673.03478 566.26428,770.09438 556.40845,762.57964 L 532.13753,744.07388 L 504.16666,785.54324 C 489.89084,800.20544 474.4972,814.35664 465.41799,821.16424 C 451.0912,831.90664 422.42539,848.82884 418.55491,848.82884 C 417.55819,848.82884 411.91137,851.14564 406.00638,853.97744 C 388.93441,862.16434 363.36384,868.87519 336.27796,870.65414 C 231.40086,877.44844 271.41079,864.78621 184.57191,822.7349 C 177.72223,819.41797 161.95541,836.15124 142.95213,853.44234 C 122.66456,871.90194 112.01454,885.95154 103.96622,904.87264 C 101.24181,911.27764 97.000516,921.10344 94.541127,926.70774 C 87.849047,941.95754 82.344007,963.05794 81.526087,976.59254 C 81.126017,983.21304 80.243597,988.97174 79.565107,989.38994 C 78.886597,989.80794 76.341627,985.77454 73.909567,980.42684 z M 189.20718,793.59964 C 202.64933,790.20014 204.12105,789.45014 218.57959,778.63094 C 228.93959,770.87844 235.35907,756.88095 238.11491,755.65814 C 256.15269,747.65448 224.6517,740.45068 212.87468,732.50698 C 201.09757,724.56318 185.78288,718.69062 175.34998,710.72651 C 164.91707,702.76253 155.8832,696.55318 155.27473,696.92803 C 154.66625,697.3029 154.15677,702.64781 154.14252,708.80541 C 154.10089,726.76514 151.69227,744.78664 148.32575,752.32684 C 146.6123,756.16444 144.88249,763.56224 144.48165,768.76644 C 143.55316,780.82124 146.35805,786.61874 156.33499,793.26644 C 164.74242,798.86854 168.23367,798.90404 189.20718,793.59964 z M 676.35256,453.44871 C 671.97545,424.04771 675.5998,383.61353 652.69055,368.89508 C 599.83694,334.93835 594.03448,368.61168 590.79227,376.05332 C 585.45826,388.29569 582.1749,398.30925 586.22329,411.76788 C 598.66142,453.11775 614.57334,489.73268 622.12686,519.1231 C 630.79581,552.8536 640.35008,574.18689 641.30604,600.63508 C 641.98476,619.41099 641.80668,621.38507 639.04332,625.72266 C 635.1142,631.88968 575.75351,646.99617 545.86074,655.80357 C 535.59694,658.8277 544.68852,680.71621 543.51278,687.92184 C 542.33702,695.12733 526.27017,735.40151 531.43732,743.49862 C 582.4253,823.39858 695.17486,579.87795 676.35256,453.44871 z M 566.52301,649.89281 C 574.49863,647.97481 581.95541,645.63503 583.0937,644.69307 C 584.23197,643.75126 587.12519,643.12959 589.52319,643.31182 C 593.81374,643.63776 610.61218,638.34906 611.90351,636.26553 C 612.26717,635.67891 627.25459,627.85967 624.25654,625.87371 C 621.25838,623.88764 562.67501,580.82388 554.27504,576.44416 C 457.54231,526.00795 406.6927,522.5358 374.75177,528.9709 C 320.0388,539.99386 272.78346,567.73712 267.09879,574.58029 C 265.38236,576.64656 352.75875,547.47331 414.78087,578.12425 C 426.24027,583.78742 449.89944,593.51942 467.68705,612.56334 C 483.93535,629.95921 498.75092,648.36611 510.41172,651.4749 C 523.05551,654.84586 548.96381,654.11529 566.52301,649.89281 z M 449.9014,441.95288 C 480.52939,436.5933 527.98039,372.96488 524.28799,367.00829 C 523.7884,366.2022 533.46587,350.14177 531.89408,349.82836 C 474.57811,338.39979 475.95908,281.32842 475.13265,280.81929 C 474.30621,280.31003 390.62798,320.33523 371.34449,328.67153 C 354.98124,335.7454 373.68457,377.92126 383.55017,404.0976 C 387.93937,415.74344 412.10781,431.27329 421.83486,437.60463 C 433.34239,445.09481 447.28478,442.41076 449.9014,441.95288 z M 515.90781,247.7663 C 532.44656,234.73207 576.49495,169.49222 571.82148,143.01727 C 552.78125,35.155364 544.57321,101.93054 543.35117,111.55626 C 542.84508,115.54289 541.40316,124.37265 540.14683,131.17792 C 538.89063,137.98328 537.28906,147.80916 536.5878,153.01314 C 535.88661,158.21725 533.9481,167.38805 532.28,173.39268 C 530.6119,179.39742 527.97751,189.37905 526.42574,195.57427 C 524.8741,201.76939 519.65057,217.03025 514.81807,229.48721 C 509.98556,241.94419 506.03165,252.43305 506.03165,252.79576 C 506.03165,254.61482 509.38465,252.90728 515.90781,247.7663 z "
         style="opacity:1;fill:url(#linearGradient12571);fill-opacity:1" />
      <path
         sodipodi:nodetypes="ccssc"
         id="path4378"
         d="M 78.245056,977.00952 C 104.09909,869.89996 127.49084,857.8963 189.04806,818.19189 C 175.50547,810.49724 142.17753,784.987 142.26457,771.4084 C 142.49758,731.76322 149.05089,662.66251 105.33024,691.38402 C 22.372386,745.88171 52.391026,919.14573 78.245056,977.00952 z "
         style="fill:url(#linearGradient12573);fill-opacity:1;fill-rule:evenodd;stroke:none;stroke-width:1px;stroke-linecap:butt;stroke-linejoin:miter;stroke-opacity:1;display:inline" />
      <path
         sodipodi:nodetypes="ccccsc"
         id="path1460"
         d="M 169.21255,804.47251 C 205.76392,832.08909 238.06852,856.50378 260.99707,869.4527 C 484.58232,880.75628 540.4119,757.15881 544.47317,655.83032 C 524.57298,656.74411 490.66144,651.87059 472.38576,624.33016 C 426.74854,639.30966 288.58096,681.31627 286.1769,690.75718 C 273.70514,739.73452 236.62951,779.29269 169.21255,804.47251 z "
         style="fill:url(#linearGradient12575);fill-opacity:1;fill-rule:evenodd;stroke:none;stroke-width:1px;stroke-linecap:butt;stroke-linejoin:miter;stroke-opacity:1;display:inline" />
      <path
         inkscape:export-ydpi="19.25"
         inkscape:export-xdpi="19.25"
         inkscape:export-filename="/home/emcho/storage/images/sc_logo/sc_logo136x203.png"
         sodipodi:nodetypes="cssssss"
         id="path13135"
         d="M 557.21242,763.20154 C 692.25989,662.68574 674.87736,461.40974 677.05904,451.10363 C 682.60576,424.90135 649.99854,336.13328 610.83229,352.4198 C 545.62127,379.53654 656.72309,533.28802 641.81792,617.61482 C 638.71118,635.19137 584.88742,648.14822 548.29938,653.82803 C 544.07972,654.48308 547.82611,711.19002 529.47079,737.29099 C 526.84308,741.02756 554.74346,765.03919 557.21242,763.20154 z "
         style="fill:url(#linearGradient12577);fill-opacity:1;fill-rule:evenodd;stroke:none;stroke-width:1px;stroke-linecap:butt;stroke-linejoin:miter;stroke-opacity:1;display:inline" />
      <path
         inkscape:export-ydpi="19.25"
         inkscape:export-xdpi="19.25"
         inkscape:export-filename="/home/emcho/storage/images/sc_logo/sc_logo136x203.png"
         sodipodi:nodetypes="csszs"
         id="path11671"
         d="M 247.69118,751.78447 C 250.88994,747.46848 191.20003,727.03023 155.12423,694.54779 C 151.12421,690.94619 150.47911,747.09517 146.6991,770.5075 C 144.3505,785.05406 169.05093,799.70026 174.69648,801.52475 C 179.37973,803.03826 234.55975,769.50233 247.69118,751.78447 z "
         style="fill:url(#linearGradient12579);fill-opacity:1;fill-rule:evenodd;stroke:none;stroke-width:1px;stroke-linecap:butt;stroke-linejoin:miter;stroke-opacity:1;display:inline" />
      <path
         inkscape:export-ydpi="19.25"
         inkscape:export-xdpi="19.25"
         inkscape:export-filename="/home/emcho/storage/images/sc_logo/sc_logo136x203.png"
         sodipodi:nodetypes="csssss"
         id="path9481"
         d="M 273.89208,573.20681 C 291.84609,566.774 343.10337,551.27066 404.33748,572.58865 C 446.27675,587.18935 470.34309,623.99945 488.44701,638.15682 C 531.09118,671.50481 609.81197,634.45995 624.05055,634.68386 C 629.90063,634.77585 518.37748,534.56571 434.29502,529.49564 C 321.26243,522.67991 250.71282,581.5118 273.89208,573.20681 z "
         style="fill:url(#linearGradient12581);fill-opacity:1;fill-rule:evenodd;stroke:none;stroke-width:1px;stroke-linecap:butt;stroke-linejoin:miter;stroke-opacity:1;display:inline" />
      <path
         inkscape:export-ydpi="19.25"
         inkscape:export-xdpi="19.25"
         inkscape:export-filename="/home/emcho/storage/images/sc_logo/sc_logo136x203.png"
         sodipodi:nodetypes="csss"
         id="path8745"
         d="M 549.6905,74.858261 C 549.06868,109.05846 538.30931,190.69068 503.67569,246.48109 C 487.83407,271.99993 562.7655,212.79924 570.83244,161.91332 C 575.2694,133.92519 550.20477,47.602058 549.6905,74.858261 z "
         style="fill:url(#linearGradient12583);fill-opacity:1;fill-rule:evenodd;stroke:none;stroke-width:1px;stroke-linecap:butt;stroke-linejoin:miter;stroke-opacity:1" />
      <path
         inkscape:export-ydpi="19.25"
         inkscape:export-xdpi="19.25"
         inkscape:export-filename="/home/emcho/storage/images/sc_logo/sc_logo136x203.png"
         sodipodi:nodetypes="cssscsc"
         id="path8003"
         d="M 437.22329,447.91866 C 474.82289,428.71931 509.077,403.47161 530.78685,356.58797 C 534.46242,348.65038 512.88226,356.34945 496.29538,332.80436 C 479.87203,309.4914 483.74736,285.83004 469.68068,287.72262 C 425.72895,293.63604 367.12531,335.08203 367.12531,335.08203 C 367.12531,335.08203 370.49587,380.43311 382.37589,398.86658 C 406.8703,436.87301 437.22329,447.91866 437.22329,447.91866 z "
         style="opacity:1;fill:url(#linearGradient12585);fill-opacity:1;fill-rule:evenodd;stroke:none;stroke-width:1.12248683px;stroke-linecap:butt;stroke-linejoin:miter;stroke-opacity:1;display:inline" />
      <path
         inkscape:export-ydpi="19.25"
         inkscape:export-xdpi="19.25"
         inkscape:export-filename="/home/emcho/storage/images/sc_logo/sc_logo136x203.png"
         sodipodi:nodetypes="ccsssccssscccsssscscsccsssssccssssssccsssccssssccsscssssssssssssccsssccssssssccssssssssssssscsssscssscssc"
         id="path1378"
         d="M 430.17026,221.8711 C 414.1067,231.23327 394.7938,241.70485 390.95913,251.17245 C 378.0906,278.20776 373.2671,326.72526 377.18524,323.93913 C 415.3737,296.78381 459.58783,289.25527 475.67606,274.71131 C 523.35008,231.61326 541.85819,142.51885 531.8403,155.72537 C 499.40969,198.47834 446.74212,212.21267 430.17026,221.8711 z M 180.26693,820.13928 C 180.26693,820.13928 135.17288,788.94902 136.00397,778.94227 C 142.90996,695.79095 128.15215,690.93882 120.71454,691.82079 C 111.72889,692.88634 65.034481,722.3647 55.925336,805.59795 C 49.315339,865.99566 73.18066,960.3603 76.816143,965.4662 C 95.628544,914.9073 88.288877,874.214 180.26693,820.13928 z M 672.91449,451.75686 C 670.6708,389.42101 633.13969,346.56052 607.64963,356.59828 C 596.83542,360.85682 589.57486,389.88239 593.37187,407.87936 C 596.7396,423.84232 619.68682,485.61348 621.33679,490.83543 C 625.23818,503.18311 651.5769,578.85832 646.89484,615.21924 C 642.79086,647.09013 550.40764,658.1173 550.40764,658.1173 C 550.40764,658.1173 548.85516,684.05846 545.67043,701.58703 C 541.75549,723.13483 533.99359,740.04538 533.99359,740.04538 C 533.99359,740.04538 554.10726,758.78263 554.92005,758.76185 C 555.73284,758.74107 681.5166,690.7491 672.91449,451.75686 z M 576.48037,644.85429 C 582.98268,643.03431 621.37538,632.88278 619.3177,631.53307 C 605.0705,622.18781 588.85717,610.42388 561.70222,589.3039 C 410.94459,472.05085 274.00853,570.80785 276.70675,569.91045 C 301.74055,561.58444 328.17619,556.87935 364.90274,559.33253 C 394.48485,561.30849 440.98733,576.30362 481.72281,624.86179 C 496.87477,642.92346 514.0673,655.17853 576.48037,644.85429 z M 509.23155,390.34402 C 513.79288,386.39814 529.64656,356.51264 526.79174,355.81839 C 486.78524,346.08922 482.88875,328.38854 478.97309,309.12999 C 475.30553,291.09167 475.87133,288.51925 468.29256,291.02249 C 407.05829,311.24792 390.12031,322.36319 380.75072,330.13936 C 366.07331,342.3207 376.36864,375.05198 382.10786,388.0608 C 390.10703,406.19214 419.51623,439.00138 433.19817,441.64343 C 453.15473,445.49715 500.31861,404.61183 509.23155,390.34402 z M 553.73575,279.89363 C 550.41713,266.32078 539.75537,248.84046 536.91442,248.84046 C 534.23894,248.84046 505.9097,270.76163 498.59252,278.39962 C 481.98536,295.73452 490.07884,327.14814 508.50113,337.92335 C 539.68207,356.16111 562.57997,316.06551 553.73575,279.89363 z M 530.22589,227.98107 C 543.8678,214.3538 562.00252,191.98482 566.82492,157.9918 C 568.71493,144.66883 569.81238,132.94941 561.52621,106.60775 C 559.60576,100.50257 553.76797,82.944307 553.54973,85.257597 C 549.23981,130.93317 542.92488,181.65046 513.11385,235.55188 C 503.75662,252.47074 508.7885,249.39534 530.22589,227.98107 z M 210.28362,500.02115 C 194.03199,568.18989 237.09881,657.71775 271.98635,662.82068 C 305.71076,667.75348 402.39368,638.56253 453.09985,624.46265 C 466.38504,620.76842 473.53184,622.69535 444.14157,598.07362 C 398.06397,566.74826 360.87509,562.71484 323.7748,566.92579 C 282.85245,571.57055 252.18772,583.68295 255.05659,581.28075 C 273.81924,565.57012 307.23807,537.47636 371.80357,524.75453 C 399.86639,519.2251 443.1744,518.73945 495.46065,539.16086 C 560.31563,564.4912 594.0953,602.05706 621.51541,614.78813 C 631.27961,619.32163 634.76756,617.21372 638.62557,605.88332 C 645.08919,586.90095 605.7982,468.37664 591.5633,433.81425 C 569.84011,381.07023 595.18534,355.86018 589.64556,357.08131 C 562.77568,363.0042 539.08137,380.27482 519.21836,398.05863 C 470.66555,441.52919 441.07242,450.7896 436.68075,450.41628 C 422.81476,449.23724 396.87067,424.69597 387.4445,412.23432 C 381.42995,404.28293 273.78478,425.06055 242.04156,452.63768 C 241.31536,453.26857 216.82255,468.97672 210.28362,500.02115 z M 175.79391,796.80675 C 211.29784,781.91029 246.05769,750.25389 243.05128,749.73104 C 224.61884,746.52542 156.63986,699.94519 156.68678,700.42818 C 159.02181,724.46673 153.78292,746.06679 151.39268,769.89269 C 150.39588,779.82886 163.64093,795.22254 175.79391,796.80675 z M 290.35807,692.60692 C 283.56599,707.74791 276.47467,767.28758 178.32293,805.49514 C 175.47982,806.60188 260.57638,864.7896 265.20735,864.9929 C 546.22588,877.3294 543.84423,663.33023 540.11427,657.93486 C 539.57446,657.154 515.53887,657.99106 496.92231,649.15725 C 495.50257,648.48375 482.87416,641.97444 475.34458,632.17012 C 472.79069,628.84472 472.39321,627.03755 462.92952,629.78779 C 419.1305,642.51627 288.3657,689.43461 290.35807,692.60692 z M 202.81372,588.22659 C 152.63132,412.88519 328.73818,404.75067 356.66008,397.99917 C 378.25267,392.77809 373.54763,390.74774 368.99434,370.32507 C 362.60117,341.65003 364.59276,316.65453 370.07331,289.86177 C 375.25589,264.5257 377.9289,251.71428 388.8744,239.01017 C 397.69671,228.77038 447.40959,205.35321 459.73337,199.44238 C 512.25174,174.2531 532.31682,146.56594 538.17025,124.7884 C 542.29676,109.43591 548.33506,71.595917 545.62079,44.548507 C 544.95273,37.891157 549.24816,48.322797 570.61599,114.71357 C 581.53425,148.63684 576.15776,189.36907 541.72264,226.14411 C 537.04601,231.13848 539.3141,232.12755 545.60307,242.51941 C 558.66941,264.11042 565.89264,291.10924 563.85759,310.75155 C 562.19021,326.84376 555.31127,342.06005 565.14982,340.87766 C 566.57217,340.70673 610.02991,334.12737 639.7787,353.03566 C 659.92479,365.84052 688.62347,390.38606 681.17407,492.91909 C 664.86169,717.44235 555.16165,766.30532 554.39265,766.33176 C 552.5357,766.39535 532.01204,745.08586 530.79729,747.59541 C 467.89561,877.5395 338.1029,872.8711 265.71561,874.237 C 251.24295,874.5101 191.06249,823.83721 185.99004,827.30374 C 121.92377,871.087 104.1376,882.0221 79.434719,993.92554 C 78.487974,992.15144 45.17731,933.06333 46.560019,814.22867 C 47.692887,716.8644 100.88506,670.91567 124.53197,673.56569 C 153.23932,676.78282 167.64627,691.75987 208.07616,718.3221 C 215.29287,723.06344 240.79027,738.48156 246.59246,738.34114 C 261.04782,738.00031 270.90926,711.44286 273.26854,694.24849 C 275.64821,676.90549 277.94889,681.09713 264.41308,676.43894 C 247.34793,670.56617 217.91256,638.60865 202.81372,588.22659 z "
         style="fill:#404e67;fill-opacity:1;fill-rule:nonzero;stroke:none;stroke-opacity:1" />
      <path
         inkscape:export-ydpi="19.25"
         inkscape:export-xdpi="19.25"
         inkscape:export-filename="/home/emcho/storage/images/sc_logo/sc_logo136x203.png"
         sodipodi:nodetypes="czssss"
         id="path1340"
         d="M 292.03434,690.98091 C 318.38578,676.60185 467.97255,629.83478 469.31559,626.89914 C 470.29591,624.75635 293.85485,697.33753 253.89386,670.43223 C 251.48528,668.81056 263.22704,677.43699 273.84343,679.61517 C 274.5892,679.76818 274.53897,707.66265 264.48074,723.44563 C 261.66017,727.87157 285.91611,694.31942 292.03434,690.98091 z "
         style="fill:url(#linearGradient12587);fill-opacity:1;fill-rule:evenodd;stroke:none;stroke-width:1px;stroke-linecap:butt;stroke-linejoin:miter;stroke-opacity:1" />
      <path
         inkscape:export-ydpi="19.25"
         inkscape:export-xdpi="19.25"
         inkscape:export-filename="/home/emcho/storage/images/sc_logo/sc_logo136x203.png"
         sodipodi:nodetypes="csss"
         id="path7309"
         d="M 535.77468,248.83532 C 519.3774,260.28143 496.76995,276.27425 492.14709,288.60809 C 489.42068,295.88217 487.57918,268.29494 506.19435,251.85994 C 516.68217,242.60043 539.1296,246.49342 535.77468,248.83532 z "
         style="fill:url(#linearGradient12589);fill-opacity:1;fill-rule:evenodd;stroke:none;stroke-width:1px;stroke-linecap:butt;stroke-linejoin:miter;stroke-opacity:1;display:inline" />
      <path
         inkscape:export-ydpi="19.25"
         inkscape:export-xdpi="19.25"
         inkscape:export-filename="/home/emcho/storage/images/sc_logo/sc_logo136x203.png"
         sodipodi:nodetypes="csss"
         id="path11669"
         d="M 513.72668,340.97764 C 532.32467,346.52316 546.68985,335.16442 554.56446,310.69142 C 555.49531,307.7985 552.26302,332.12396 540.70519,341.16634 C 529.6863,349.78707 509.80582,339.80852 513.72668,340.97764 z "
         style="fill:url(#linearGradient12591);fill-opacity:1;fill-rule:evenodd;stroke:none;stroke-width:1px;stroke-linecap:butt;stroke-linejoin:miter;stroke-opacity:1;display:inline" />
      <path
         inkscape:export-ydpi="19.25"
         inkscape:export-xdpi="19.25"
         inkscape:export-filename="/home/emcho/storage/images/sc_logo/sc_logo136x203.png"
         sodipodi:nodetypes="cscss"
         id="path13125"
         d="M 560.93233,366.24093 C 587.28377,351.86187 614.26336,354.0625 637.25974,355.09837 C 652.52465,355.78598 608.50486,337.98492 558.49504,340.76767 C 553.15365,345.31559 537.28124,371.84237 514.91156,398.70565 C 511.55314,402.73871 554.8141,369.57944 560.93233,366.24093 z "
         style="fill:url(#linearGradient12593);fill-opacity:1;fill-rule:evenodd;stroke:none;stroke-width:1px;stroke-linecap:butt;stroke-linejoin:miter;stroke-opacity:1;display:inline" />
      <path
         inkscape:export-ydpi="19.25"
         inkscape:export-xdpi="19.25"
         inkscape:export-filename="/home/emcho/storage/images/sc_logo/sc_logo136x203.png"
         sodipodi:nodetypes="csccscs"
         id="path16045"
         d="M 310.12467,423.11139 C 325.59709,419.92636 345.00349,414.66802 357.84793,413.37307 C 368.55775,412.29333 381.97715,406.26202 392.28661,417.3508 C 386.54648,409.48208 375.56841,393.58955 372.14774,383.18032 C 375.26206,395.4114 361.34348,397.136 357.88389,397.68567 C 280.08644,409.97712 233.28544,430.92754 209.67262,469.8874 C 254.39801,435.28574 307.2045,423.71252 310.12467,423.11139 z "
         style="fill:url(#linearGradient12595);fill-opacity:1;fill-rule:evenodd;stroke:none;stroke-width:1px;stroke-linecap:butt;stroke-linejoin:miter;stroke-opacity:1;display:inline" />
    </g>
    <rect
       style="opacity:1;fill:#8ca5c8;fill-opacity:1;fill-rule:nonzero;stroke:none;stroke-width:3.621;stroke-linecap:round;stroke-linejoin:round;stroke-miterlimit:4;stroke-dasharray:none;stroke-opacity:1"
       id="rect1927"
       width="241.40776"
       height="241.40776"
       x="27.269506"
       y="407.62518"
       inkscape:export-filename="/home/yana/workspace/SCProject/src/net/java/sip/communicator/impl/systray/resources/systrayIcon.png"
       inkscape:export-xdpi="8.20189"
       inkscape:export-ydpi="8.20189" />
    <g
       id="g2910"
       inkscape:export-filename="/home/yana/workspace/SCProject/src/net/java/sip/communicator/impl/systray/resources/systrayIcon.png"
       inkscape:export-xdpi="8.20189"
       inkscape:export-ydpi="8.20189">
      <path
         inkscape:export-ydpi="19.25"
         inkscape:export-xdpi="19.25"
         inkscape:export-filename="/home/emcho/storage/images/sc_logo/sc_logo136x203.png"
         sodipodi:nodetypes="csssssssssssssssssssssssssssssssssccssssssssssccsssssssssccsssssssssscssssssssssccssssssscssssssssc"
         id="path1931"
         d="M 72.873444,642.13461 C 72.275819,640.82042 71.786855,639.63685 71.786855,639.5043 C 71.786855,639.37178 69.706236,628.42944 69.46916,625.61749 C 68.434096,613.34058 66.801642,612.16484 67.257412,601.21892 C 67.533513,594.58831 66.613493,592.32657 68.570852,586.90414 C 72.601867,575.7372 75.557468,571.34329 80.795952,568.73 C 85.045692,566.60996 89.032898,566.89793 92.77524,569.59518 C 93.761584,570.3061 97.071013,572.54566 100.1295,574.57196 C 103.18801,576.5983 106.82053,579.05492 108.20179,580.03115 C 109.58304,581.00743 111.8869,582.41612 113.32151,583.16161 C 115.85209,584.47671 115.94562,584.49671 116.4588,583.83265 C 117.58641,582.37358 120.30827,578.2787 121.78004,576.32411 C 129.15213,566.53359 122.20918,567.62189 120.47412,567.1112 C 117.74629,566.30826 116.59728,565.13182 114.0477,562.14362 C 108.12607,555.20327 105.31973,547.48148 104.90508,537.94023 C 104.42354,526.86051 105.53774,517.92492 110.40297,512.83935 C 112.48824,510.65962 116.90246,507.49411 120.93802,505.2844 C 124.35572,503.41301 145.31685,499.50208 147.15639,500.31465 C 148.07537,500.72058 143.51843,488.67603 146.14087,473.01569 C 146.66183,469.90466 150.20021,460.27781 150.57409,459.62271 C 151.49722,458.00527 166.70912,452.79876 171.0363,450.25756 C 175.87116,447.41821 186.32704,440.57873 187.11473,435.49188 C 188.84572,424.31328 189.15298,419.53628 189.87454,419.11657 C 190.94842,418.49192 198.12705,433.29223 193.26806,447.24773 C 192.30913,450.00187 187.736,456.39638 185.68831,459.07103 C 184.21379,460.99705 187.41606,461.89724 189.25816,464.67782 C 190.9335,467.20664 192.03491,473.38868 192.24996,476.59198 C 192.46955,479.86299 191.43453,486.57433 190.50746,487.89078 C 190.13197,488.42403 189.97817,488.94787 190.16359,489.06214 C 190.34808,489.17582 191.59776,489.02697 192.94067,488.73138 C 194.28356,488.43579 197.19433,487.96508 199.40904,487.68538 C 203.35163,487.18751 203.49288,487.19443 206.16854,488.01751 C 210.1824,489.25227 229.70643,493.96928 217.24801,548.52493 C 213.12048,566.59946 193.85928,590.44982 191.43741,588.60323 L 185.47334,584.05583 L 178.60009,594.24605 C 175.09211,597.84898 171.30944,601.32634 169.07842,602.99917 C 165.55791,605.63889 158.51389,609.79716 157.5628,609.79716 C 157.31788,609.79716 155.93029,610.36647 154.47926,611.06232 C 150.28418,613.07408 144.00075,614.72313 137.34497,615.16027 C 111.57362,616.82983 121.40522,613.71835 100.06639,603.38512 C 98.383226,602.57006 94.508861,606.68191 89.839204,610.93083 C 84.85396,615.46689 82.236941,618.91929 80.259235,623.56875 C 79.589769,625.14264 78.54756,627.55713 77.943217,628.93427 C 76.298778,632.68158 74.94603,637.86656 74.745044,641.19241 C 74.646735,642.81926 74.429899,644.23434 74.263174,644.3371 C 74.096445,644.43982 73.471072,643.44869 72.873444,642.13461 z M 101.20541,596.22575 C 104.50854,595.39039 104.87018,595.20609 108.42306,592.5475 C 110.96882,590.64249 112.54627,587.2029 113.22346,586.90242 C 117.65586,584.93569 109.91516,583.16551 107.0212,581.21351 C 104.12722,579.26149 100.36396,577.81843 97.800295,575.86141 C 95.236627,573.90443 93.016743,572.37862 92.867224,572.47073 C 92.717703,572.56284 92.592509,573.87624 92.589007,575.38934 C 92.578778,579.80257 91.98691,584.23098 91.159658,586.08382 C 90.738614,587.02683 90.313549,588.84469 90.215051,590.12351 C 89.986894,593.08572 90.676137,594.51034 93.127761,596.14387 C 95.19371,597.52047 96.051611,597.52919 101.20541,596.22575 z M 220.91116,512.6408 C 219.83558,505.41612 220.72618,495.48027 215.09672,491.86352 C 202.10905,483.51937 200.68322,491.79388 199.88651,493.62251 C 198.57579,496.63081 197.76898,499.09143 198.76378,502.39861 C 201.82019,512.55947 205.73021,521.55682 207.58633,528.7789 C 209.71654,537.06746 212.0643,542.30967 212.29921,548.80876 C 212.46599,553.42254 212.42223,553.90763 211.7432,554.9735 C 210.7777,556.48892 196.19105,560.20102 188.84553,562.36526 C 186.32342,563.10837 188.55749,568.48701 188.26857,570.25765 C 187.97965,572.02824 184.03156,581.92478 185.30128,583.91447 C 197.83051,603.54821 225.53634,543.70813 220.91116,512.6408 z M 193.92285,560.91281 C 195.88269,560.4415 197.71504,559.86655 197.99475,559.63508 C 198.27446,559.40365 198.98541,559.25089 199.57466,559.29567 C 200.62898,559.37576 204.75684,558.07618 205.07416,557.56419 C 205.16352,557.42004 208.84636,555.49863 208.10966,555.01062 C 207.37292,554.52259 192.97729,543.94057 190.91317,542.86435 C 167.14313,530.47071 154.64791,529.6175 146.7991,531.19879 C 133.35453,533.90745 121.74253,540.72477 120.34564,542.40634 C 119.92386,542.91408 141.39477,535.74537 156.63541,543.27719 C 159.45132,544.6688 165.26506,547.06023 169.63599,551.73988 C 173.62867,556.01455 177.26928,560.53766 180.13468,561.30158 C 183.24163,562.12992 189.60805,561.9504 193.92285,560.91281 z M 165.26554,509.81594 C 172.79173,508.49894 184.45181,492.86359 183.54448,491.39988 C 183.42172,491.2018 185.79975,487.25529 185.41352,487.17827 C 171.32932,484.36994 171.66867,470.34585 171.46559,470.22074 C 171.26251,470.0956 150.70034,479.93096 145.96183,481.97943 C 141.94091,483.71768 146.53686,494.08151 148.96112,500.5138 C 150.03967,503.37552 155.97856,507.19165 158.36878,508.74745 C 161.19651,510.588 164.62256,509.92845 165.26554,509.81594 z M 181.48523,462.09867 C 185.54928,458.89578 196.37325,442.86445 195.22484,436.35879 C 190.5461,409.85399 188.52915,426.26259 188.22886,428.62791 C 188.1045,429.60754 187.75018,431.77727 187.44146,433.44952 C 187.13278,435.12179 186.73922,437.5363 186.5669,438.81507 C 186.3946,440.09387 185.91825,442.3474 185.50835,443.82291 C 185.09845,445.29845 184.45111,447.75122 184.06979,449.27357 C 183.68851,450.79589 182.40493,454.54593 181.21745,457.60696 C 180.02996,460.668 179.05837,463.24542 179.05837,463.33455 C 179.05837,463.78155 179.8823,463.36195 181.48523,462.09867 z "
         style="fill:#3e669e;fill-opacity:1" />
      <path
         sodipodi:nodetypes="ccssc"
         id="path1933"
         d="M 73.938799,641.29487 C 80.291885,614.97495 86.039917,612.0253 101.16631,602.26877 C 97.838504,600.37798 89.648862,594.10937 89.670251,590.77271 C 89.727508,581.03074 91.337846,564.0507 80.594415,571.1084 C 60.209264,584.50007 67.585714,627.07606 73.938799,641.29487 z "
         style="fill:#3e669e;fill-opacity:1;fill-rule:evenodd;stroke:none;stroke-width:1px;stroke-linecap:butt;stroke-linejoin:miter;stroke-opacity:1;display:inline" />
      <path
         sodipodi:nodetypes="ccccsc"
         id="path1935"
         d="M 96.292151,598.89753 C 105.27388,605.68372 113.21206,611.68312 118.84627,614.86504 C 173.78765,617.64266 187.5066,587.27118 188.50457,562.37183 C 183.61451,562.59637 175.28146,561.39881 170.7906,554.63133 C 159.57621,558.31222 125.62443,568.63447 125.03368,570.95437 C 121.96901,582.98952 112.85845,592.71011 96.292151,598.89753 z "
         style="fill:#3e669e;fill-opacity:1;fill-rule:evenodd;stroke:none;stroke-width:1px;stroke-linecap:butt;stroke-linejoin:miter;stroke-opacity:1;display:inline" />
      <path
         inkscape:export-ydpi="19.25"
         inkscape:export-xdpi="19.25"
         inkscape:export-filename="/home/emcho/storage/images/sc_logo/sc_logo136x203.png"
         sodipodi:nodetypes="cssssss"
         id="path1937"
         d="M 191.63497,588.75605 C 224.82005,564.0564 220.54866,514.59705 221.08476,512.06454 C 222.44775,505.62588 214.43521,483.81299 204.81093,487.81507 C 188.78669,494.47843 216.08763,532.25963 212.425,552.98117 C 211.66158,557.30024 198.43552,560.48411 189.44478,561.87981 C 188.40789,562.04077 189.32848,575.97531 184.81805,582.38908 C 184.17234,583.30726 191.02828,589.20762 191.63497,588.75605 z "
         style="fill:#ffbe5b;fill-opacity:1;fill-rule:evenodd;stroke:none;stroke-width:1px;stroke-linecap:butt;stroke-linejoin:miter;stroke-opacity:1;display:inline" />
      <path
         inkscape:export-ydpi="19.25"
         inkscape:export-xdpi="19.25"
         inkscape:export-filename="/home/emcho/storage/images/sc_logo/sc_logo136x203.png"
         sodipodi:nodetypes="csszs"
         id="path1939"
         d="M 115.57663,585.95055 C 116.36265,584.88998 101.69511,579.86771 92.830242,571.88583 C 91.847321,571.00082 91.688801,584.79825 90.759943,590.55134 C 90.182824,594.12585 96.252436,597.72485 97.639711,598.17318 C 98.790522,598.54509 112.34985,590.30434 115.57663,585.95055 z "
         style="fill:#ffbe5b;fill-opacity:1;fill-rule:evenodd;stroke:none;stroke-width:1px;stroke-linecap:butt;stroke-linejoin:miter;stroke-opacity:1;display:inline" />
      <path
         inkscape:export-ydpi="19.25"
         inkscape:export-xdpi="19.25"
         inkscape:export-filename="/home/emcho/storage/images/sc_logo/sc_logo136x203.png"
         sodipodi:nodetypes="csssss"
         id="path1941"
         d="M 122.01495,542.06884 C 126.42677,540.48811 139.02217,536.67849 154.06916,541.91694 C 164.37486,545.50475 170.28866,554.55006 174.73732,558.02894 C 185.21622,566.22351 204.56021,557.12051 208.05904,557.17553 C 209.49657,557.19813 182.0921,532.5736 161.4306,531.32773 C 133.65522,529.65291 116.31913,544.10961 122.01495,542.06884 z "
         style="fill:#ffbe5b;fill-opacity:1;fill-rule:evenodd;stroke:none;stroke-width:1px;stroke-linecap:butt;stroke-linejoin:miter;stroke-opacity:1;display:inline" />
      <path
         inkscape:export-ydpi="19.25"
         inkscape:export-xdpi="19.25"
         inkscape:export-filename="/home/emcho/storage/images/sc_logo/sc_logo136x203.png"
         sodipodi:nodetypes="csss"
         id="path1943"
         d="M 189.78662,419.61015 C 189.63382,428.01413 186.98993,448.07353 178.47944,461.78285 C 174.5867,468.05357 192.99952,453.50624 194.9818,441.0021 C 196.07209,434.1246 189.91299,412.91251 189.78662,419.61015 z "
         style="fill:#ffc565;fill-opacity:1;fill-rule:evenodd;stroke:none;stroke-width:1px;stroke-linecap:butt;stroke-linejoin:miter;stroke-opacity:1" />
      <path
         inkscape:export-ydpi="19.25"
         inkscape:export-xdpi="19.25"
         inkscape:export-filename="/home/emcho/storage/images/sc_logo/sc_logo136x203.png"
         sodipodi:nodetypes="cssscsc"
         id="path1945"
         d="M 162.15016,511.2819 C 171.38947,506.56407 179.8067,500.35998 185.14144,488.83931 C 186.04464,486.88881 180.74176,488.78069 176.66589,482.99498 C 172.63019,477.26631 173.58248,471.45203 170.12588,471.91709 C 159.32567,473.37019 144.92506,483.55467 144.92506,483.55467 C 144.92506,483.55467 145.7533,494.69875 148.67257,499.22839 C 154.69155,508.56767 162.15016,511.2819 162.15016,511.2819 z "
         style="fill:#ffbe5b;fill-opacity:1;fill-rule:evenodd;stroke:none;stroke-width:1.12248683px;stroke-linecap:butt;stroke-linejoin:miter;stroke-opacity:1;display:inline" />
      <path
         inkscape:export-ydpi="19.25"
         inkscape:export-xdpi="19.25"
         inkscape:export-filename="/home/emcho/storage/images/sc_logo/sc_logo136x203.png"
         sodipodi:nodetypes="ccsssccssscccsssscscsccsssssccssssssccsssccssssccsscssssssssssssccsssccssssssccssssssssssssscsssscssscssc"
         id="path1947"
         d="M 160.41703,455.73546 C 156.46975,458.03602 151.72401,460.60919 150.78172,462.93565 C 147.61955,469.57901 146.43427,481.50117 147.39707,480.81654 C 156.78108,474.14369 167.64578,472.29371 171.59912,468.71984 C 183.31401,458.12939 187.86199,436.23631 185.40031,439.48154 C 177.43116,449.98718 164.48921,453.36211 160.41703,455.73546 z M 99.008532,602.74731 C 99.008532,602.74731 87.927617,595.08295 88.13184,592.62401 C 89.828842,572.19131 86.20242,570.99901 84.374783,571.21573 C 82.166748,571.47757 70.692578,578.72126 68.454197,599.17408 C 66.829929,614.01555 72.69433,637.20368 73.587674,638.45834 C 78.210426,626.03456 76.406857,616.03503 99.008532,602.74731 z M 220.06632,512.22506 C 219.51499,496.90734 210.2925,486.37527 204.02886,488.84184 C 201.37149,489.88829 199.58736,497.02071 200.5204,501.44309 C 201.34795,505.36565 206.98674,520.54461 207.39219,521.8278 C 208.35087,524.86198 214.82306,543.45758 213.67254,552.39251 C 212.66408,560.22411 189.96284,562.93381 189.96284,562.93381 C 189.96284,562.93381 189.58135,569.3083 188.79877,573.61558 C 187.83675,578.9105 185.92943,583.06591 185.92943,583.06591 C 185.92943,583.06591 190.87194,587.6702 191.07167,587.66509 C 191.2714,587.65998 222.18011,570.95239 220.06632,512.22506 z M 196.36966,559.6747 C 197.96747,559.22748 207.40167,556.73295 206.89604,556.40129 C 203.39509,554.10489 199.411,551.21415 192.73824,546.02436 C 155.69272,517.21188 122.04356,541.47934 122.70659,541.25882 C 128.85812,539.21288 135.35413,538.05671 144.37891,538.65952 C 151.64809,539.14507 163.0751,542.82981 173.08498,554.76196 C 176.80826,559.20024 181.03296,562.21166 196.36966,559.6747 z M 179.84468,497.13415 C 180.96553,496.16453 184.86124,488.82079 184.15973,488.6502 C 174.32897,486.25946 173.37149,481.90989 172.4093,477.1775 C 171.50807,472.74496 171.64711,472.11285 169.78478,472.72797 C 154.73775,477.69794 150.57559,480.42928 148.27321,482.34011 C 144.66655,485.33342 147.19641,493.37645 148.6067,496.57309 C 150.57233,501.02849 157.79902,509.09067 161.16107,509.7399 C 166.06498,510.68687 177.65451,500.64016 179.84468,497.13415 z M 190.78065,469.99328 C 189.96517,466.65804 187.34527,462.36262 186.64716,462.36262 C 185.98972,462.36262 179.0284,467.74928 177.23036,469.62616 C 173.1495,473.88585 175.1383,481.60509 179.66519,484.25287 C 187.32726,488.73441 192.95393,478.88176 190.78065,469.99328 z M 185.0036,457.23686 C 188.35581,453.88824 192.81204,448.39154 193.99704,440.03847 C 194.46147,436.76463 194.73115,433.88483 192.69499,427.41192 C 192.22308,425.9117 190.78857,421.59712 190.73494,422.16556 C 189.67587,433.38938 188.12411,445.85209 180.79867,459.09723 C 178.49933,463.25468 179.73581,462.49897 185.0036,457.23686 z M 106.3845,524.085 C 102.39101,540.83603 112.97377,562.83562 121.54665,564.08956 C 129.83372,565.30169 153.59152,558.12863 166.05149,554.66388 C 169.31605,553.7561 171.07223,554.22961 163.85018,548.17933 C 152.52758,540.48178 143.38919,539.49065 134.27258,540.52541 C 124.21677,541.66676 116.68156,544.64313 117.38652,544.05284 C 121.99705,540.19228 130.20902,533.28883 146.07464,530.16271 C 152.97049,528.80396 163.61252,528.68463 176.46077,533.70276 C 192.39752,539.92716 200.69816,549.15818 207.43608,552.28657 C 209.83543,553.40058 210.69252,552.88261 211.64054,550.0984 C 213.22884,545.43388 203.57391,516.30902 200.07598,507.81604 C 194.73796,494.85531 200.96602,488.66047 199.60473,488.96053 C 193.00203,490.41596 187.17965,494.65985 182.29873,499.02985 C 170.36789,509.71183 163.096,511.98738 162.01684,511.89564 C 158.60957,511.60592 152.23435,505.57542 149.91807,502.51323 C 148.44012,500.55934 121.98858,505.665 114.18835,512.4415 C 114.0099,512.59653 107.99131,516.45648 106.3845,524.085 z M 97.909382,597.01383 C 106.63373,593.35333 115.17523,585.57444 114.43647,585.44596 C 109.90708,584.65824 93.202676,573.21213 93.214206,573.33082 C 93.78799,579.23779 92.500643,584.54555 91.913292,590.40026 C 91.668349,592.84187 94.923042,596.62454 97.909382,597.01383 z M 126.06112,571.40891 C 124.39211,575.12949 122.64956,589.76011 98.530835,599.14882 C 97.832201,599.42077 118.74289,613.71918 119.88086,613.76914 C 188.93526,616.80058 188.35002,564.21477 187.43346,562.88898 C 187.30081,562.6971 181.39457,562.90279 176.81994,560.73206 C 176.47107,560.56656 173.3679,558.96704 171.51767,556.55783 C 170.8901,555.74068 170.79243,555.29661 168.46693,555.97242 C 157.70424,559.10018 125.57154,570.62938 126.06112,571.40891 z M 104.54893,545.75963 C 92.217662,502.67316 135.49222,500.67428 142.35344,499.01524 C 147.65937,497.73227 146.50321,497.23335 145.38433,492.21491 C 143.81334,485.16862 144.30273,479.0265 145.64946,472.44274 C 146.92297,466.21694 147.57981,463.0688 150.26944,459.94703 C 152.43733,457.43082 164.65323,451.67654 167.68154,450.22408 C 180.58683,444.03434 185.5174,437.2308 186.95576,431.87943 C 187.96976,428.10688 189.45355,418.80849 188.78657,412.16216 C 188.62241,410.52626 189.67792,413.08961 194.92862,429.40375 C 197.61155,437.73968 196.29039,447.74877 187.82868,456.78547 C 186.6795,458.01273 187.23683,458.25577 188.78222,460.80935 C 191.993,466.11489 193.76795,472.74928 193.26788,477.57597 C 192.85816,481.53029 191.1678,485.26937 193.58542,484.97883 C 193.93493,484.93682 204.61376,483.32008 211.9239,487.9664 C 216.87438,491.11293 223.92648,497.14448 222.09594,522.33982 C 218.08752,577.51169 191.13104,589.51874 190.94207,589.52524 C 190.48577,589.54086 185.44251,584.3045 185.14401,584.92117 C 169.68724,616.8522 137.79341,615.70504 120.00575,616.04068 C 116.4494,616.10779 101.66131,603.65599 100.41487,604.50782 C 84.671926,615.26664 80.301348,617.95371 74.231134,645.45163 C 73.998491,645.01568 65.813095,630.49602 66.152867,601.2949 C 66.431245,577.36967 79.502105,566.07874 85.312836,566.72992 C 92.367065,567.52047 95.90727,571.20076 105.84207,577.72787 C 107.61542,578.89296 113.88087,582.68164 115.30664,582.64713 C 118.85874,582.56338 121.28198,576.03744 121.86173,571.81229 C 122.44648,567.55061 123.01182,568.58062 119.68568,567.43596 C 115.49228,565.99285 108.25916,558.13996 104.54893,545.75963 z "
         style="fill:#404e67;fill-opacity:1;fill-rule:nonzero;stroke:none;stroke-opacity:1" />
      <path
         inkscape:export-ydpi="19.25"
         inkscape:export-xdpi="19.25"
         inkscape:export-filename="/home/emcho/storage/images/sc_logo/sc_logo136x203.png"
         sodipodi:nodetypes="czssss"
         id="path1949"
         d="M 126.47303,571.00935 C 132.94834,567.476 169.70615,555.98397 170.03617,555.2626 C 170.27706,554.73605 126.92038,572.57135 117.1008,565.95994 C 116.50895,565.56145 119.39424,567.68121 122.00299,568.21646 C 122.18625,568.25406 122.17391,575.10854 119.70231,578.98687 C 119.00921,580.07445 124.9696,571.82972 126.47303,571.00935 z "
         style="fill:url(#linearGradient1998);fill-opacity:1;fill-rule:evenodd;stroke:none;stroke-width:1px;stroke-linecap:butt;stroke-linejoin:miter;stroke-opacity:1" />
      <path
         inkscape:export-ydpi="19.25"
         inkscape:export-xdpi="19.25"
         inkscape:export-filename="/home/emcho/storage/images/sc_logo/sc_logo136x203.png"
         sodipodi:nodetypes="csss"
         id="path1951"
         d="M 186.3671,462.36135 C 182.33781,465.174 176.7825,469.1039 175.64653,472.13468 C 174.97657,473.92213 174.52406,467.14315 179.09835,463.10459 C 181.67551,460.82926 187.1915,461.78588 186.3671,462.36135 z "
         style="fill:url(#linearGradient1995);fill-opacity:1;fill-rule:evenodd;stroke:none;stroke-width:1px;stroke-linecap:butt;stroke-linejoin:miter;stroke-opacity:1;display:inline" />
      <path
         inkscape:export-ydpi="19.25"
         inkscape:export-xdpi="19.25"
         inkscape:export-filename="/home/emcho/storage/images/sc_logo/sc_logo136x203.png"
         sodipodi:nodetypes="csss"
         id="path1953"
         d="M 180.94926,485.00339 C 185.51933,486.36609 189.04927,483.57492 190.98429,477.56119 C 191.21303,476.85032 190.41876,482.82779 187.57867,485.04976 C 184.871,487.16813 179.98579,484.71611 180.94926,485.00339 z "
         style="fill:url(#linearGradient1992);fill-opacity:1;fill-rule:evenodd;stroke:none;stroke-width:1px;stroke-linecap:butt;stroke-linejoin:miter;stroke-opacity:1;display:inline" />
      <path
         inkscape:export-ydpi="19.25"
         inkscape:export-xdpi="19.25"
         inkscape:export-filename="/home/emcho/storage/images/sc_logo/sc_logo136x203.png"
         sodipodi:nodetypes="cscss"
         id="path1955"
         d="M 192.54906,491.21132 C 199.02437,487.67797 205.65404,488.21872 211.30492,488.47327 C 215.05595,488.64223 204.23901,484.268 191.95015,484.9518 C 190.63761,486.06935 186.7373,492.58775 181.24042,499.18884 C 180.41516,500.17988 191.04563,492.03169 192.54906,491.21132 z "
         style="fill:url(#linearGradient1989);fill-opacity:1;fill-rule:evenodd;stroke:none;stroke-width:1px;stroke-linecap:butt;stroke-linejoin:miter;stroke-opacity:1;display:inline" />
      <path
         inkscape:export-ydpi="19.25"
         inkscape:export-xdpi="19.25"
         inkscape:export-filename="/home/emcho/storage/images/sc_logo/sc_logo136x203.png"
         sodipodi:nodetypes="csccscs"
         id="path1957"
         d="M 130.91835,505.18604 C 134.72037,504.40338 139.48908,503.11126 142.64533,502.79305 C 145.27705,502.52773 148.57458,501.04566 151.10792,503.77049 C 149.6974,501.83692 146.99977,497.93167 146.15921,495.37382 C 146.92449,498.37935 143.50429,498.80313 142.65417,498.9382 C 123.53708,501.95857 112.03672,507.10669 106.23436,516.68026 C 117.22469,508.17763 130.20077,505.33375 130.91835,505.18604 z "
         style="fill:url(#linearGradient1986);fill-opacity:1;fill-rule:evenodd;stroke:none;stroke-width:1px;stroke-linecap:butt;stroke-linejoin:miter;stroke-opacity:1;display:inline" />
    </g>
  </g>
</svg>
