<?xml version="1.0" encoding="UTF-8" standalone="no"?>
<!-- Created with Inkscape (http://www.inkscape.org/) -->
<svg
   xmlns:dc="http://purl.org/dc/elements/1.1/"
   xmlns:cc="http://web.resource.org/cc/"
   xmlns:rdf="http://www.w3.org/1999/02/22-rdf-syntax-ns#"
   xmlns:svg="http://www.w3.org/2000/svg"
   xmlns="http://www.w3.org/2000/svg"
   xmlns:xlink="http://www.w3.org/1999/xlink"
   xmlns:sodipodi="http://sodipodi.sourceforge.net/DTD/sodipodi-0.dtd"
   xmlns:inkscape="http://www.inkscape.org/namespaces/inkscape"
   width="64px"
   height="64px"
   id="svg3266"
   sodipodi:version="0.32"
   inkscape:version="0.45"
   sodipodi:modified="true">
  <defs
     id="defs3268">
    <linearGradient
       inkscape:collect="always"
       xlink:href="#linearGradient2937"
       id="linearGradient12595"
       gradientUnits="userSpaceOnUse"
       gradientTransform="translate(-35.81825,-253.4089)"
       x1="338.14404"
       y1="668.30090"
       x2="266.21500"
       y2="702.89276" />
    <linearGradient
       inkscape:collect="always"
       xlink:href="#linearGradient2937"
       id="linearGradient12593"
       gradientUnits="userSpaceOnUse"
       gradientTransform="translate(260.2799,-327.2023)"
       x1="279.81714"
       y1="688.32355"
       x2="386.78625"
       y2="667.63550" />
    <linearGradient
       inkscape:collect="always"
       xlink:href="#linearGradient2937"
       id="linearGradient12591"
       gradientUnits="userSpaceOnUse"
       gradientTransform="matrix(-0.377706,-2.864599e-2,5.725924e-2,-0.754981,617.9483,841.0397)"
       x1="301.05194"
       y1="645.89917"
       x2="367.94604"
       y2="654.72131" />
    <linearGradient
       inkscape:collect="always"
       xlink:href="#linearGradient2937"
       id="linearGradient12589"
       gradientUnits="userSpaceOnUse"
       gradientTransform="matrix(0.378791,0,0,0.757149,397.1425,-232.6481)"
       x1="246.30438"
       y1="690.02673"
       x2="366.87921"
       y2="632.15985" />
    <linearGradient
       id="linearGradient2937">
      <stop
         style="stop-color:#212a3a;stop-opacity:1.0000000;"
         offset="0.0000000"
         id="stop2939" />
      <stop
         style="stop-color:#404e67;stop-opacity:0.0000000;"
         offset="1.0000000"
         id="stop2941" />
    </linearGradient>
    <linearGradient
       inkscape:collect="always"
       xlink:href="#linearGradient2937"
       id="linearGradient12587"
       gradientUnits="userSpaceOnUse"
       x1="297.05316"
       y1="667.16193"
       x2="310.45529"
       y2="713.86633" />
    <linearGradient
       inkscape:collect="always"
       xlink:href="#linearGradient3651"
       id="linearGradient12585"
       gradientUnits="userSpaceOnUse"
       x1="511.90863"
       y1="447.91867"
       x2="400.04312"
       y2="302.47498" />
    <linearGradient
       inkscape:collect="always"
       xlink:href="#linearGradient3651"
       id="linearGradient12583"
       gradientUnits="userSpaceOnUse"
       x1="522.63641"
       y1="168.68723"
       x2="585.93317"
       y2="161.10866" />
    <linearGradient
       inkscape:collect="always"
       xlink:href="#linearGradient3651"
       id="linearGradient12581"
       gradientUnits="userSpaceOnUse"
       x1="427.58920"
       y1="494.52457"
       x2="478.62225"
       y2="667.08844" />
    <linearGradient
       id="linearGradient7434">
      <stop
         id="stop7436"
         offset="0.0000000"
         style="stop-color:#ffc768;stop-opacity:1.0000000;" />
      <stop
         style="stop-color:#ff8400;stop-opacity:1.0000000;"
         offset="0.50000000"
         id="stop7438" />
      <stop
         id="stop7440"
         offset="0.75000000"
         style="stop-color:#ff8400;stop-opacity:1.0000000;" />
      <stop
         id="stop7442"
         offset="1.0000000"
         style="stop-color:#ffc768;stop-opacity:1.0000000;" />
    </linearGradient>
    <linearGradient
       inkscape:collect="always"
       xlink:href="#linearGradient7434"
       id="linearGradient12579"
       gradientUnits="userSpaceOnUse"
       x1="197.17841"
       y1="703.80151"
       x2="146.54216"
       y2="785.90436" />
    <linearGradient
       id="linearGradient3651">
      <stop
         style="stop-color:#ff8400;stop-opacity:1.0000000;"
         offset="0.0000000"
         id="stop3653" />
      <stop
         id="stop16786"
         offset="0.50000000"
         style="stop-color:#ffc768;stop-opacity:1.0000000;" />
      <stop
         style="stop-color:#ffc768;stop-opacity:1.0000000;"
         offset="0.75000000"
         id="stop17514" />
      <stop
         style="stop-color:#ff8400;stop-opacity:1.0000000;"
         offset="1.0000000"
         id="stop3655" />
    </linearGradient>
    <linearGradient
       inkscape:collect="always"
       xlink:href="#linearGradient3651"
       id="linearGradient12577"
       gradientUnits="userSpaceOnUse"
       x1="398.54004"
       y1="780.45007"
       x2="308.98642"
       y2="420.01578" />
    <linearGradient
       id="linearGradient5041">
      <stop
         style="stop-color:#143e7b;stop-opacity:1.0000000;"
         offset="0.0000000"
         id="stop5043" />
      <stop
         id="stop5047"
         offset="1.0000000"
         style="stop-color:#a2c7f2;stop-opacity:1.0000000;" />
    </linearGradient>
    <linearGradient
       inkscape:collect="always"
       xlink:href="#linearGradient5041"
       id="linearGradient12575"
       gradientUnits="userSpaceOnUse"
       gradientTransform="translate(-0.548101,0.659586)"
       x1="559.64185"
       y1="933.61621"
       x2="705.13171"
       y2="505.11523" />
    <linearGradient
       id="linearGradient8896">
      <stop
         id="stop8898"
         offset="0.0000000"
         style="stop-color:#143e7b;stop-opacity:1.0000000;" />
      <stop
         style="stop-color:#4571ac;stop-opacity:1.0000000;"
         offset="0.50000000"
         id="stop8902" />
      <stop
         id="stop12553"
         offset="0.50000000"
         style="stop-color:#4571ac;stop-opacity:1.0000000;" />
      <stop
         style="stop-color:#143e7b;stop-opacity:1.0000000;"
         offset="1.0000000"
         id="stop8900" />
    </linearGradient>
    <linearGradient
       inkscape:collect="always"
       xlink:href="#linearGradient8896"
       id="linearGradient12573"
       gradientUnits="userSpaceOnUse"
       x1="22.053253"
       y1="1019.4496"
       x2="213.29953"
       y2="716.66205" />
    <linearGradient
       id="linearGradient3643">
      <stop
         id="stop3510"
         offset="0.0000000"
         style="stop-color:#143e7b;stop-opacity:1.0000000;" />
      <stop
         style="stop-color:#4375b9;stop-opacity:1.0000000;"
         offset="0.50537872"
         id="stop1334" />
      <stop
         style="stop-color:#6a95c8;stop-opacity:1.0000000;"
         offset="0.72359401"
         id="stop4966" />
      <stop
         id="stop15307"
         offset="0.90244496"
         style="stop-color:#1c56ab;stop-opacity:1.0000000;" />
      <stop
         style="stop-color:#8da9cc;stop-opacity:0.95686275;"
         offset="0.92824608"
         id="stop15309" />
      <stop
         id="stop16043"
         offset="0.99991590"
         style="stop-color:#386ab2;stop-opacity:0.99215686;" />
      <stop
         style="stop-color:#1c56ab;stop-opacity:1.0000000;"
         offset="1.0000000"
         id="stop3647" />
    </linearGradient>
    <linearGradient
       inkscape:collect="always"
       xlink:href="#linearGradient3643"
       id="linearGradient12571"
       gradientUnits="userSpaceOnUse"
       gradientTransform="translate(45.71426,-157.1429)"
       x1="445.84717"
       y1="1000.7343"
       x2="331.00372"
       y2="501.43796" />
  </defs>
  <sodipodi:namedview
     id="base"
     pagecolor="#ffffff"
     bordercolor="#666666"
     borderopacity="1.0"
     inkscape:pageopacity="0.0"
     inkscape:pageshadow="2"
     inkscape:zoom="5.5"
     inkscape:cx="38.655627"
     inkscape:cy="30.073418"
     inkscape:current-layer="layer1"
     showgrid="true"
     inkscape:document-units="px"
     inkscape:grid-bbox="true"
     inkscape:window-width="796"
     inkscape:window-height="588"
     inkscape:window-x="74"
     inkscape:window-y="137" />
  <metadata
     id="metadata3271">
    <rdf:RDF>
      <cc:Work
         rdf:about="">
        <dc:format>image/svg+xml</dc:format>
        <dc:type
           rdf:resource="http://purl.org/dc/dcmitype/StillImage" />
      </cc:Work>
    </rdf:RDF>
  </metadata>
  <g
     id="layer1"
     inkscape:label="Layer 1"
     inkscape:groupmode="layer">
    <g
       style="display:inline"
       id="g12555"
       transform="matrix(6.7016604e-2,0,0,6.7016604e-2,7.882512,-2.6095143)"
       inkscape:export-filename="/home/yana/sc_logo139x208.png"
       inkscape:export-xdpi="139.00000"
       inkscape:export-ydpi="139.00000">
      <path
         inkscape:export-ydpi="19.25"
         inkscape:export-xdpi="19.25"
         inkscape:export-filename="/home/emcho/storage/images/sc_logo/sc_logo136x203.png"
         sodipodi:nodetypes="csssssssssssssssssssssssssssssssssccssssssssssccsssssssssccsssssssssscssssssssssccssssssscssssssssc"
         id="path4159"
         d="M 73.909567,980.42684 C 71.477517,975.07874 69.487667,970.26214 69.487667,969.72274 C 69.487667,969.18344 61.020537,924.65334 60.055754,913.21005 C 55.843533,863.24888 49.200223,858.46417 51.054993,813.91947 C 52.178593,786.93607 48.434547,777.73184 56.400067,755.66514 C 72.804377,710.22101 84.832267,692.33988 106.1504,681.70506 C 123.44482,673.07749 139.67085,674.2494 154.9004,685.22591 C 158.91435,688.11903 172.38215,697.23295 184.82872,705.47905 C 197.2754,713.72529 212.05804,723.72254 217.67909,727.69534 C 223.30014,731.66834 232.67576,737.40104 238.51392,740.43484 C 248.81219,745.78664 249.1928,745.86804 251.28119,743.16564 C 255.87006,737.22794 266.94673,720.5637 272.93612,712.60948 C 302.93703,672.76669 274.6825,677.19557 267.62164,675.11729 C 256.52067,671.84972 251.84474,667.06219 241.46919,654.90161 C 217.37097,626.65768 205.95051,595.23369 204.26305,556.40534 C 202.30342,511.31615 206.8377,474.95255 226.63686,454.25674 C 235.12293,445.38626 253.08668,432.50413 269.50951,423.51167 C 283.41792,415.89599 368.71974,399.98039 376.20579,403.28714 C 379.9456,404.93909 361.40101,355.92351 372.07308,292.19341 C 374.19316,279.53298 388.59266,240.35628 390.11419,237.69035 C 393.87089,231.10813 455.77609,209.9201 473.38563,199.57863 C 493.06121,188.02385 535.61168,160.19041 538.8172,139.48937 C 545.8615,93.997777 547.1119,74.557676 550.04829,72.849651 C 554.4185,70.30761 583.63208,130.53784 563.8583,187.33008 C 559.95592,198.53811 541.34546,224.5607 533.01234,235.44527 C 527.01176,243.28326 540.04345,246.94661 547.53992,258.26225 C 554.35778,268.55334 558.83997,293.71128 559.71515,306.7472 C 560.60875,320.05864 556.39673,347.3706 552.62397,352.72792 C 551.09594,354.89799 550.47003,357.02978 551.22462,357.49482 C 551.97537,357.95744 557.06097,357.35166 562.52599,356.14875 C 567.99091,354.94584 579.83636,353.03027 588.84916,351.89205 C 604.89365,349.86595 605.46847,349.89412 616.35711,353.24364 C 632.69163,358.26855 712.14514,377.46453 661.44529,599.48005 C 644.6482,673.03478 566.26428,770.09438 556.40845,762.57964 L 532.13753,744.07388 L 504.16666,785.54324 C 489.89084,800.20544 474.4972,814.35664 465.41799,821.16424 C 451.0912,831.90664 422.42539,848.82884 418.55491,848.82884 C 417.55819,848.82884 411.91137,851.14564 406.00638,853.97744 C 388.93441,862.16434 363.36384,868.87519 336.27796,870.65414 C 231.40086,877.44844 271.41079,864.78621 184.57191,822.7349 C 177.72223,819.41797 161.95541,836.15124 142.95213,853.44234 C 122.66456,871.90194 112.01454,885.95154 103.96622,904.87264 C 101.24181,911.27764 97.000516,921.10344 94.541127,926.70774 C 87.849047,941.95754 82.344007,963.05794 81.526087,976.59254 C 81.126017,983.21304 80.243597,988.97174 79.565107,989.38994 C 78.886597,989.80794 76.341627,985.77454 73.909567,980.42684 z M 189.20718,793.59964 C 202.64933,790.20014 204.12105,789.45014 218.57959,778.63094 C 228.93959,770.87844 235.35907,756.88095 238.11491,755.65814 C 256.15269,747.65448 224.6517,740.45068 212.87468,732.50698 C 201.09757,724.56318 185.78288,718.69062 175.34998,710.72651 C 164.91707,702.76253 155.8832,696.55318 155.27473,696.92803 C 154.66625,697.3029 154.15677,702.64781 154.14252,708.80541 C 154.10089,726.76514 151.69227,744.78664 148.32575,752.32684 C 146.6123,756.16444 144.88249,763.56224 144.48165,768.76644 C 143.55316,780.82124 146.35805,786.61874 156.33499,793.26644 C 164.74242,798.86854 168.23367,798.90404 189.20718,793.59964 z M 676.35256,453.44871 C 671.97545,424.04771 675.5998,383.61353 652.69055,368.89508 C 599.83694,334.93835 594.03448,368.61168 590.79227,376.05332 C 585.45826,388.29569 582.1749,398.30925 586.22329,411.76788 C 598.66142,453.11775 614.57334,489.73268 622.12686,519.1231 C 630.79581,552.8536 640.35008,574.18689 641.30604,600.63508 C 641.98476,619.41099 641.80668,621.38507 639.04332,625.72266 C 635.1142,631.88968 575.75351,646.99617 545.86074,655.80357 C 535.59694,658.8277 544.68852,680.71621 543.51278,687.92184 C 542.33702,695.12733 526.27017,735.40151 531.43732,743.49862 C 582.4253,823.39858 695.17486,579.87795 676.35256,453.44871 z M 566.52301,649.89281 C 574.49863,647.97481 581.95541,645.63503 583.0937,644.69307 C 584.23197,643.75126 587.12519,643.12959 589.52319,643.31182 C 593.81374,643.63776 610.61218,638.34906 611.90351,636.26553 C 612.26717,635.67891 627.25459,627.85967 624.25654,625.87371 C 621.25838,623.88764 562.67501,580.82388 554.27504,576.44416 C 457.54231,526.00795 406.6927,522.5358 374.75177,528.9709 C 320.0388,539.99386 272.78346,567.73712 267.09879,574.58029 C 265.38236,576.64656 352.75875,547.47331 414.78087,578.12425 C 426.24027,583.78742 449.89944,593.51942 467.68705,612.56334 C 483.93535,629.95921 498.75092,648.36611 510.41172,651.4749 C 523.05551,654.84586 548.96381,654.11529 566.52301,649.89281 z M 449.9014,441.95288 C 480.52939,436.5933 527.98039,372.96488 524.28799,367.00829 C 523.7884,366.2022 533.46587,350.14177 531.89408,349.82836 C 474.57811,338.39979 475.95908,281.32842 475.13265,280.81929 C 474.30621,280.31003 390.62798,320.33523 371.34449,328.67153 C 354.98124,335.7454 373.68457,377.92126 383.55017,404.0976 C 387.93937,415.74344 412.10781,431.27329 421.83486,437.60463 C 433.34239,445.09481 447.28478,442.41076 449.9014,441.95288 z M 515.90781,247.7663 C 532.44656,234.73207 576.49495,169.49222 571.82148,143.01727 C 552.78125,35.155364 544.57321,101.93054 543.35117,111.55626 C 542.84508,115.54289 541.40316,124.37265 540.14683,131.17792 C 538.89063,137.98328 537.28906,147.80916 536.5878,153.01314 C 535.88661,158.21725 533.9481,167.38805 532.28,173.39268 C 530.6119,179.39742 527.97751,189.37905 526.42574,195.57427 C 524.8741,201.76939 519.65057,217.03025 514.81807,229.48721 C 509.98556,241.94419 506.03165,252.43305 506.03165,252.79576 C 506.03165,254.61482 509.38465,252.90728 515.90781,247.7663 z "
         style="opacity:1;fill:url(#linearGradient12571);fill-opacity:1" />
      <path
         sodipodi:nodetypes="ccssc"
         id="path4378"
         d="M 78.245056,977.00952 C 104.09909,869.89996 127.49084,857.8963 189.04806,818.19189 C 175.50547,810.49724 142.17753,784.987 142.26457,771.4084 C 142.49758,731.76322 149.05089,662.66251 105.33024,691.38402 C 22.372386,745.88171 52.391026,919.14573 78.245056,977.00952 z "
         style="fill:url(#linearGradient12573);fill-opacity:1;fill-rule:evenodd;stroke:none;stroke-width:1px;stroke-linecap:butt;stroke-linejoin:miter;stroke-opacity:1;display:inline" />
      <path
         sodipodi:nodetypes="ccccsc"
         id="path1460"
         d="M 169.21255,804.47251 C 205.76392,832.08909 238.06852,856.50378 260.99707,869.4527 C 484.58232,880.75628 540.4119,757.15881 544.47317,655.83032 C 524.57298,656.74411 490.66144,651.87059 472.38576,624.33016 C 426.74854,639.30966 288.58096,681.31627 286.1769,690.75718 C 273.70514,739.73452 236.62951,779.29269 169.21255,804.47251 z "
         style="fill:url(#linearGradient12575);fill-opacity:1;fill-rule:evenodd;stroke:none;stroke-width:1px;stroke-linecap:butt;stroke-linejoin:miter;stroke-opacity:1;display:inline" />
      <path
         inkscape:export-ydpi="19.25"
         inkscape:export-xdpi="19.25"
         inkscape:export-filename="/home/emcho/storage/images/sc_logo/sc_logo136x203.png"
         sodipodi:nodetypes="cssssss"
         id="path13135"
         d="M 557.21242,763.20154 C 692.25989,662.68574 674.87736,461.40974 677.05904,451.10363 C 682.60576,424.90135 649.99854,336.13328 610.83229,352.4198 C 545.62127,379.53654 656.72309,533.28802 641.81792,617.61482 C 638.71118,635.19137 584.88742,648.14822 548.29938,653.82803 C 544.07972,654.48308 547.82611,711.19002 529.47079,737.29099 C 526.84308,741.02756 554.74346,765.03919 557.21242,763.20154 z "
         style="fill:url(#linearGradient12577);fill-opacity:1;fill-rule:evenodd;stroke:none;stroke-width:1px;stroke-linecap:butt;stroke-linejoin:miter;stroke-opacity:1;display:inline" />
      <path
         inkscape:export-ydpi="19.25"
         inkscape:export-xdpi="19.25"
         inkscape:export-filename="/home/emcho/storage/images/sc_logo/sc_logo136x203.png"
         sodipodi:nodetypes="csszs"
         id="path11671"
         d="M 247.69118,751.78447 C 250.88994,747.46848 191.20003,727.03023 155.12423,694.54779 C 151.12421,690.94619 150.47911,747.09517 146.6991,770.5075 C 144.3505,785.05406 169.05093,799.70026 174.69648,801.52475 C 179.37973,803.03826 234.55975,769.50233 247.69118,751.78447 z "
         style="fill:url(#linearGradient12579);fill-opacity:1;fill-rule:evenodd;stroke:none;stroke-width:1px;stroke-linecap:butt;stroke-linejoin:miter;stroke-opacity:1;display:inline" />
      <path
         inkscape:export-ydpi="19.25"
         inkscape:export-xdpi="19.25"
         inkscape:export-filename="/home/emcho/storage/images/sc_logo/sc_logo136x203.png"
         sodipodi:nodetypes="csssss"
         id="path9481"
         d="M 273.89208,573.20681 C 291.84609,566.774 343.10337,551.27066 404.33748,572.58865 C 446.27675,587.18935 470.34309,623.99945 488.44701,638.15682 C 531.09118,671.50481 609.81197,634.45995 624.05055,634.68386 C 629.90063,634.77585 518.37748,534.56571 434.29502,529.49564 C 321.26243,522.67991 250.71282,581.5118 273.89208,573.20681 z "
         style="fill:url(#linearGradient12581);fill-opacity:1;fill-rule:evenodd;stroke:none;stroke-width:1px;stroke-linecap:butt;stroke-linejoin:miter;stroke-opacity:1;display:inline" />
      <path
         inkscape:export-ydpi="19.25"
         inkscape:export-xdpi="19.25"
         inkscape:export-filename="/home/emcho/storage/images/sc_logo/sc_logo136x203.png"
         sodipodi:nodetypes="csss"
         id="path8745"
         d="M 549.6905,74.858261 C 549.06868,109.05846 538.30931,190.69068 503.67569,246.48109 C 487.83407,271.99993 562.7655,212.79924 570.83244,161.91332 C 575.2694,133.92519 550.20477,47.602058 549.6905,74.858261 z "
         style="fill:url(#linearGradient12583);fill-opacity:1;fill-rule:evenodd;stroke:none;stroke-width:1px;stroke-linecap:butt;stroke-linejoin:miter;stroke-opacity:1" />
      <path
         inkscape:export-ydpi="19.25"
         inkscape:export-xdpi="19.25"
         inkscape:export-filename="/home/emcho/storage/images/sc_logo/sc_logo136x203.png"
         sodipodi:nodetypes="cssscsc"
         id="path8003"
         d="M 437.22329,447.91866 C 474.82289,428.71931 509.077,403.47161 530.78685,356.58797 C 534.46242,348.65038 512.88226,356.34945 496.29538,332.80436 C 479.87203,309.4914 483.74736,285.83004 469.68068,287.72262 C 425.72895,293.63604 367.12531,335.08203 367.12531,335.08203 C 367.12531,335.08203 370.49587,380.43311 382.37589,398.86658 C 406.8703,436.87301 437.22329,447.91866 437.22329,447.91866 z "
         style="opacity:1;fill:url(#linearGradient12585);fill-opacity:1;fill-rule:evenodd;stroke:none;stroke-width:1.12248683px;stroke-linecap:butt;stroke-linejoin:miter;stroke-opacity:1;display:inline" />
      <path
         inkscape:export-ydpi="19.25"
         inkscape:export-xdpi="19.25"
         inkscape:export-filename="/home/emcho/storage/images/sc_logo/sc_logo136x203.png"
         sodipodi:nodetypes="ccsssccssscccsssscscsccsssssccssssssccsssccssssccsscssssssssssssccsssccssssssccssssssssssssscsssscssscssc"
         id="path1378"
         d="M 430.17026,221.8711 C 414.1067,231.23327 394.7938,241.70485 390.95913,251.17245 C 378.0906,278.20776 373.2671,326.72526 377.18524,323.93913 C 415.3737,296.78381 459.58783,289.25527 475.67606,274.71131 C 523.35008,231.61326 541.85819,142.51885 531.8403,155.72537 C 499.40969,198.47834 446.74212,212.21267 430.17026,221.8711 z M 180.26693,820.13928 C 180.26693,820.13928 135.17288,788.94902 136.00397,778.94227 C 142.90996,695.79095 128.15215,690.93882 120.71454,691.82079 C 111.72889,692.88634 65.034481,722.3647 55.925336,805.59795 C 49.315339,865.99566 73.18066,960.3603 76.816143,965.4662 C 95.628544,914.9073 88.288877,874.214 180.26693,820.13928 z M 672.91449,451.75686 C 670.6708,389.42101 633.13969,346.56052 607.64963,356.59828 C 596.83542,360.85682 589.57486,389.88239 593.37187,407.87936 C 596.7396,423.84232 619.68682,485.61348 621.33679,490.83543 C 625.23818,503.18311 651.5769,578.85832 646.89484,615.21924 C 642.79086,647.09013 550.40764,658.1173 550.40764,658.1173 C 550.40764,658.1173 548.85516,684.05846 545.67043,701.58703 C 541.75549,723.13483 533.99359,740.04538 533.99359,740.04538 C 533.99359,740.04538 554.10726,758.78263 554.92005,758.76185 C 555.73284,758.74107 681.5166,690.7491 672.91449,451.75686 z M 576.48037,644.85429 C 582.98268,643.03431 621.37538,632.88278 619.3177,631.53307 C 605.0705,622.18781 588.85717,610.42388 561.70222,589.3039 C 410.94459,472.05085 274.00853,570.80785 276.70675,569.91045 C 301.74055,561.58444 328.17619,556.87935 364.90274,559.33253 C 394.48485,561.30849 440.98733,576.30362 481.72281,624.86179 C 496.87477,642.92346 514.0673,655.17853 576.48037,644.85429 z M 509.23155,390.34402 C 513.79288,386.39814 529.64656,356.51264 526.79174,355.81839 C 486.78524,346.08922 482.88875,328.38854 478.97309,309.12999 C 475.30553,291.09167 475.87133,288.51925 468.29256,291.02249 C 407.05829,311.24792 390.12031,322.36319 380.75072,330.13936 C 366.07331,342.3207 376.36864,375.05198 382.10786,388.0608 C 390.10703,406.19214 419.51623,439.00138 433.19817,441.64343 C 453.15473,445.49715 500.31861,404.61183 509.23155,390.34402 z M 553.73575,279.89363 C 550.41713,266.32078 539.75537,248.84046 536.91442,248.84046 C 534.23894,248.84046 505.9097,270.76163 498.59252,278.39962 C 481.98536,295.73452 490.07884,327.14814 508.50113,337.92335 C 539.68207,356.16111 562.57997,316.06551 553.73575,279.89363 z M 530.22589,227.98107 C 543.8678,214.3538 562.00252,191.98482 566.82492,157.9918 C 568.71493,144.66883 569.81238,132.94941 561.52621,106.60775 C 559.60576,100.50257 553.76797,82.944307 553.54973,85.257597 C 549.23981,130.93317 542.92488,181.65046 513.11385,235.55188 C 503.75662,252.47074 508.7885,249.39534 530.22589,227.98107 z M 210.28362,500.02115 C 194.03199,568.18989 237.09881,657.71775 271.98635,662.82068 C 305.71076,667.75348 402.39368,638.56253 453.09985,624.46265 C 466.38504,620.76842 473.53184,622.69535 444.14157,598.07362 C 398.06397,566.74826 360.87509,562.71484 323.7748,566.92579 C 282.85245,571.57055 252.18772,583.68295 255.05659,581.28075 C 273.81924,565.57012 307.23807,537.47636 371.80357,524.75453 C 399.86639,519.2251 443.1744,518.73945 495.46065,539.16086 C 560.31563,564.4912 594.0953,602.05706 621.51541,614.78813 C 631.27961,619.32163 634.76756,617.21372 638.62557,605.88332 C 645.08919,586.90095 605.7982,468.37664 591.5633,433.81425 C 569.84011,381.07023 595.18534,355.86018 589.64556,357.08131 C 562.77568,363.0042 539.08137,380.27482 519.21836,398.05863 C 470.66555,441.52919 441.07242,450.7896 436.68075,450.41628 C 422.81476,449.23724 396.87067,424.69597 387.4445,412.23432 C 381.42995,404.28293 273.78478,425.06055 242.04156,452.63768 C 241.31536,453.26857 216.82255,468.97672 210.28362,500.02115 z M 175.79391,796.80675 C 211.29784,781.91029 246.05769,750.25389 243.05128,749.73104 C 224.61884,746.52542 156.63986,699.94519 156.68678,700.42818 C 159.02181,724.46673 153.78292,746.06679 151.39268,769.89269 C 150.39588,779.82886 163.64093,795.22254 175.79391,796.80675 z M 290.35807,692.60692 C 283.56599,707.74791 276.47467,767.28758 178.32293,805.49514 C 175.47982,806.60188 260.57638,864.7896 265.20735,864.9929 C 546.22588,877.3294 543.84423,663.33023 540.11427,657.93486 C 539.57446,657.154 515.53887,657.99106 496.92231,649.15725 C 495.50257,648.48375 482.87416,641.97444 475.34458,632.17012 C 472.79069,628.84472 472.39321,627.03755 462.92952,629.78779 C 419.1305,642.51627 288.3657,689.43461 290.35807,692.60692 z M 202.81372,588.22659 C 152.63132,412.88519 328.73818,404.75067 356.66008,397.99917 C 378.25267,392.77809 373.54763,390.74774 368.99434,370.32507 C 362.60117,341.65003 364.59276,316.65453 370.07331,289.86177 C 375.25589,264.5257 377.9289,251.71428 388.8744,239.01017 C 397.69671,228.77038 447.40959,205.35321 459.73337,199.44238 C 512.25174,174.2531 532.31682,146.56594 538.17025,124.7884 C 542.29676,109.43591 548.33506,71.595917 545.62079,44.548507 C 544.95273,37.891157 549.24816,48.322797 570.61599,114.71357 C 581.53425,148.63684 576.15776,189.36907 541.72264,226.14411 C 537.04601,231.13848 539.3141,232.12755 545.60307,242.51941 C 558.66941,264.11042 565.89264,291.10924 563.85759,310.75155 C 562.19021,326.84376 555.31127,342.06005 565.14982,340.87766 C 566.57217,340.70673 610.02991,334.12737 639.7787,353.03566 C 659.92479,365.84052 688.62347,390.38606 681.17407,492.91909 C 664.86169,717.44235 555.16165,766.30532 554.39265,766.33176 C 552.5357,766.39535 532.01204,745.08586 530.79729,747.59541 C 467.89561,877.5395 338.1029,872.8711 265.71561,874.237 C 251.24295,874.5101 191.06249,823.83721 185.99004,827.30374 C 121.92377,871.087 104.1376,882.0221 79.434719,993.92554 C 78.487974,992.15144 45.17731,933.06333 46.560019,814.22867 C 47.692887,716.8644 100.88506,670.91567 124.53197,673.56569 C 153.23932,676.78282 167.64627,691.75987 208.07616,718.3221 C 215.29287,723.06344 240.79027,738.48156 246.59246,738.34114 C 261.04782,738.00031 270.90926,711.44286 273.26854,694.24849 C 275.64821,676.90549 277.94889,681.09713 264.41308,676.43894 C 247.34793,670.56617 217.91256,638.60865 202.81372,588.22659 z "
         style="fill:#404e67;fill-opacity:1;fill-rule:nonzero;stroke:none;stroke-opacity:1" />
      <path
         inkscape:export-ydpi="19.25"
         inkscape:export-xdpi="19.25"
         inkscape:export-filename="/home/emcho/storage/images/sc_logo/sc_logo136x203.png"
         sodipodi:nodetypes="czssss"
         id="path1340"
         d="M 292.03434,690.98091 C 318.38578,676.60185 467.97255,629.83478 469.31559,626.89914 C 470.29591,624.75635 293.85485,697.33753 253.89386,670.43223 C 251.48528,668.81056 263.22704,677.43699 273.84343,679.61517 C 274.5892,679.76818 274.53897,707.66265 264.48074,723.44563 C 261.66017,727.87157 285.91611,694.31942 292.03434,690.98091 z "
         style="fill:url(#linearGradient12587);fill-opacity:1;fill-rule:evenodd;stroke:none;stroke-width:1px;stroke-linecap:butt;stroke-linejoin:miter;stroke-opacity:1" />
      <path
         inkscape:export-ydpi="19.25"
         inkscape:export-xdpi="19.25"
         inkscape:export-filename="/home/emcho/storage/images/sc_logo/sc_logo136x203.png"
         sodipodi:nodetypes="csss"
         id="path7309"
         d="M 535.77468,248.83532 C 519.3774,260.28143 496.76995,276.27425 492.14709,288.60809 C 489.42068,295.88217 487.57918,268.29494 506.19435,251.85994 C 516.68217,242.60043 539.1296,246.49342 535.77468,248.83532 z "
         style="fill:url(#linearGradient12589);fill-opacity:1;fill-rule:evenodd;stroke:none;stroke-width:1px;stroke-linecap:butt;stroke-linejoin:miter;stroke-opacity:1;display:inline" />
      <path
         inkscape:export-ydpi="19.25"
         inkscape:export-xdpi="19.25"
         inkscape:export-filename="/home/emcho/storage/images/sc_logo/sc_logo136x203.png"
         sodipodi:nodetypes="csss"
         id="path11669"
         d="M 513.72668,340.97764 C 532.32467,346.52316 546.68985,335.16442 554.56446,310.69142 C 555.49531,307.7985 552.26302,332.12396 540.70519,341.16634 C 529.6863,349.78707 509.80582,339.80852 513.72668,340.97764 z "
         style="fill:url(#linearGradient12591);fill-opacity:1;fill-rule:evenodd;stroke:none;stroke-width:1px;stroke-linecap:butt;stroke-linejoin:miter;stroke-opacity:1;display:inline" />
      <path
         inkscape:export-ydpi="19.25"
         inkscape:export-xdpi="19.25"
         inkscape:export-filename="/home/emcho/storage/images/sc_logo/sc_logo136x203.png"
         sodipodi:nodetypes="cscss"
         id="path13125"
         d="M 560.93233,366.24093 C 587.28377,351.86187 614.26336,354.0625 637.25974,355.09837 C 652.52465,355.78598 608.50486,337.98492 558.49504,340.76767 C 553.15365,345.31559 537.28124,371.84237 514.91156,398.70565 C 511.55314,402.73871 554.8141,369.57944 560.93233,366.24093 z "
         style="fill:url(#linearGradient12593);fill-opacity:1;fill-rule:evenodd;stroke:none;stroke-width:1px;stroke-linecap:butt;stroke-linejoin:miter;stroke-opacity:1;display:inline" />
      <path
         inkscape:export-ydpi="19.25"
         inkscape:export-xdpi="19.25"
         inkscape:export-filename="/home/emcho/storage/images/sc_logo/sc_logo136x203.png"
         sodipodi:nodetypes="csccscs"
         id="path16045"
         d="M 310.12467,423.11139 C 325.59709,419.92636 345.00349,414.66802 357.84793,413.37307 C 368.55775,412.29333 381.97715,406.26202 392.28661,417.3508 C 386.54648,409.48208 375.56841,393.58955 372.14774,383.18032 C 375.26206,395.4114 361.34348,397.136 357.88389,397.68567 C 280.08644,409.97712 233.28544,430.92754 209.67262,469.8874 C 254.39801,435.28574 307.2045,423.71252 310.12467,423.11139 z "
         style="fill:url(#linearGradient12595);fill-opacity:1;fill-rule:evenodd;stroke:none;stroke-width:1px;stroke-linecap:butt;stroke-linejoin:miter;stroke-opacity:1;display:inline" />
    </g>
  </g>
</svg>
