/* XPM */
static char *sc-logo-32x32[] = {
/* columns rows colors chars-per-pixel */
"32 32 170 2",
"   c #143E7A",
".  c #2E3A4D",
"X  c #2A3954",
"o  c #17417E",
"O  c #1A427A",
"+  c #33425B",
"@  c #2A456C",
"#  c #244473",
"$  c #244A7F",
"%  c #294570",
"&  c #284778",
"*  c #2F4973",
"=  c #2A4B7A",
"-  c #374662",
";  c #33496D",
":  c #394D6B",
">  c #364F75",
",  c #304E7B",
"<  c #3A4D70",
"1  c #3E506D",
"2  c #375177",
"3  c #35517B",
"4  c #3D5272",
"5  c #3B547C",
"6  c #51525E",
"7  c #5E5657",
"8  c #5F595D",
"9  c #404E67",
"0  c #44526C",
"q  c #4F5668",
"w  c #415372",
"e  c #42587B",
"r  c #4F5C72",
"t  c #495D7D",
"y  c #525763",
"u  c #585D68",
"i  c #5C6169",
"p  c #5A6272",
"a  c #59647A",
"s  c #645957",
"d  c #625B5B",
"f  c #695B52",
"g  c #735C50",
"h  c #78614E",
"j  c #75675B",
"k  c #7A6654",
"l  c #6F6B64",
"z  c #6C6D6D",
"x  c #646A74",
"c  c #6C6C77",
"v  c #706F6B",
"b  c #7B6A60",
"n  c #796D68",
"m  c #777473",
"M  c #7B7A76",
"N  c #1B4581",
"B  c #214A85",
"V  c #234D88",
"C  c #27508B",
"Z  c #2E5081",
"A  c #2A538D",
"S  c #2B5590",
"D  c #325485",
"F  c #315488",
"G  c #3B5680",
"H  c #3C5984",
"J  c #3B5B8B",
"K  c #325A92",
"L  c #345E98",
"P  c #3B5E92",
"I  c #36609A",
"U  c #3B639B",
"Y  c #3F689F",
"T  c #3260A1",
"R  c #3767AE",
"E  c #3964A3",
"W  c #3866A8",
"Q  c #3E69A5",
"!  c #3B6AAD",
"~  c #376CB5",
"^  c #396BB2",
"/  c #3E71B5",
"(  c #445E87",
")  c #435E88",
"_  c #46628B",
"`  c #4D688E",
"'  c #436697",
"]  c #42689F",
"[  c #4E6B93",
"{  c #506B8F",
"}  c #506D96",
"|  c #577196",
" . c #5F7593",
".. c #446CA3",
"X. c #406EAE",
"o. c #4470AB",
"O. c #4971A7",
"+. c #4C74AA",
"@. c #4173B6",
"#. c #4375B9",
"$. c #4778BA",
"%. c #4B7CBC",
"&. c #5779A5",
"*. c #537AAD",
"=. c #557DB2",
"-. c #6C7181",
";. c #6E7A8E",
":. c #697B92",
">. c #767F87",
",. c #5180BD",
"<. c #5A81B3",
"1. c #6289BB",
"2. c #5685C0",
"3. c #5886C1",
"4. c #5C8AC2",
"5. c #618DC4",
"6. c #6591C6",
"7. c #6994C7",
"8. c #B66F26",
"9. c #B47A3C",
"0. c #8C7259",
"q. c #926843",
"w. c #94704B",
"e. c #9F774A",
"r. c #91765D",
"t. c #9A7F5E",
"y. c #817B6E",
"u. c #817973",
"i. c #A37E55",
"p. c #DE7F1B",
"a. c #CB7E2A",
"s. c #8D8069",
"d. c #958365",
"f. c #9B8360",
"g. c #988368",
"h. c #9E8A68",
"j. c #AA865B",
"k. c #BE8A49",
"l. c #B5905C",
"z. c #BC965E",
"x. c #A4916E",
"c. c #AE946A",
"v. c #B08F60",
"b. c #C68537",
"n. c #DD8C2E",
"m. c #E68113",
"M. c #FF8400",
"N. c #F68E19",
"B. c #FD941B",
"V. c #F49728",
"C. c #FF9F2A",
"Z. c #FFAC3E",
"A. c #C78B43",
"S. c #C19152",
"D. c #C9A061",
"F. c #D4AB67",
"G. c #DCAD63",
"H. c #DEB367",
"J. c #F2AD4D",
"K. c #FFB046",
"L. c #FFB54C",
"P. c #FFBB56",
"I. c #FCBF5E",
"U. c #E0B367",
"Y. c #E3B668",
"T. c #F7C267",
"R. c #FDC465",
"E. c #FFC768",
"W. c gray100",
"Q. c None",
/* pixels */
". . . . . . . . . . . . . . . . . . . . . . . . . . . . . . . . ",
". Q.Q.Q.Q.Q.Q.Q.Q.Q.Q.Q.Q.Q.Q.Q.Q.Q.Q.Q.Q.0 Q.Q.Q.Q.Q.Q.Q.Q.Q.. ",
". Q.Q.Q.Q.Q.Q.Q.Q.Q.Q.Q.Q.Q.Q.Q.Q.Q.Q.Q.Q.z 9 Q.Q.Q.Q.Q.Q.Q.Q.. ",
". Q.Q.Q.Q.Q.Q.Q.Q.Q.Q.Q.Q.Q.Q.Q.Q.Q.Q.Q.9 h.0 Q.Q.Q.Q.Q.Q.Q.Q.. ",
". Q.Q.Q.Q.Q.Q.Q.Q.Q.Q.Q.Q.Q.Q.Q.Q.Q.Q.1 e S.d Q.Q.Q.Q.Q.Q.Q.Q.. ",
". Q.Q.Q.Q.Q.Q.Q.Q.Q.Q.Q.Q.Q.Q.Q.Q.Q.4 P n z.9 Q.Q.Q.Q.Q.Q.Q.Q.. ",
". Q.Q.Q.Q.Q.Q.Q.Q.Q.Q.Q.Q.Q.Q.Q.H P W R w.p Q.Q.Q.Q.Q.Q.Q.Q.Q.. ",
". Q.Q.Q.Q.Q.Q.Q.Q.Q.Q.Q.Q.Q.Q.Q.P ~ ^ J w H Q.Q.Q.Q.Q.Q.Q.Q.Q.. ",
". Q.Q.Q.Q.Q.Q.Q.Q.Q.Q.Q.Q.Q.Q.G E R a : R U Q.Q.Q.Q.Q.Q.Q.Q.Q.. ",
". Q.Q.Q.Q.Q.Q.Q.Q.Q.Q.Q.Q.Q.Q.5 b k.R.m ^ ( Q.Q.Q.Q.Q.Q.Q.Q.Q.. ",
". Q.Q.Q.Q.Q.Q.Q.Q.Q.Q.Q.Q.Q.Q.w.K.E.E.U.M + - 6 f Q.Q.Q.Q.Q.Q.. ",
". Q.Q.Q.Q.Q.Q.Q.Q.Q.Q.Q.Q.Q.Q.i T.E.R.L.y > t n.e.r Q.Q.Q.Q.Q.. ",
". Q.Q.Q.Q.Q.Q.Q.Q.Q.Q.Q.9 + X X l I.L.i.Q $. .K.J.z Q.Q.Q.Q.Q.. ",
". Q.Q.Q.Q.Q.Q.Q.Q.Q.Q.3 3 T ~ / #.g.m ,.4.5.1.F.E.c.Q.Q.Q.Q.Q.. ",
". Q.Q.Q.Q.Q.Q.Q.Q.Q.5 X.#.%.,.3.4.5.7.6.5.5.5.x.E.c.Q.Q.Q.Q.Q.. ",
". Q.Q.Q.Q.Q.Q.Q.Q.Q._ 4.4.6.7.6.6.5.5.4.4.4.,.>.E.s.Q.Q.Q.Q.Q.. ",
". Q.Q.Q.Q.Q.Q.Q.Q.Q.` 5.7.<.;.r.0.0.u.} ,.%.%.+.H.d.Q.Q.Q.Q.Q.. ",
". Q.Q.Q.Q.Q.Q.Q.Q.Q.[ 4.&.n j.j.S.J.P.G.y.[ @./ l.f.Q.Q.Q.Q.Q.. ",
". Q.Q.Q.Q.Q.Q.Q.Q.Q._ ,.,.%.$.$.#.;.Y.E.E.H.x E t.c Q.Q.Q.Q.Q.. ",
". Q.Q.Q.Q.Q.Q.Q.Q.Q._ ] #./ @.@.Q U ` v.Z.C.N.8 j Q.Q.Q.Q.Q.Q.. ",
". Q.Q.Q.Q.Q.Q.Q.Q.Q.Q.G J P 5 5 _ *.<.<.-.k b.V.w.Q.Q.Q.Q.Q.Q.. ",
". Q.Q.Q.Q.Q.J 2 w t Q.Q.+ 2 ' O.+.*.*.=.<.9.B.a.g Q.Q.Q.Q.Q.Q.. ",
". Q.Q.Q.Q.4 5 V q A.z : G U U ] Q O.O.+.[ m.m.7 Q.Q.Q.Q.Q.Q.Q.. ",
". Q.Q.Q.Q.G F S 8 M.B.u Z K L L I U ] ] G 8.h Q.Q.Q.Q.Q.Q.Q.Q.. ",
". Q.Q.Q.Q.G L L r a.s B V C A S K K P K = Q.Q.Q.Q.Q.Q.Q.Q.Q.Q.. ",
". Q.Q.Q.Q.J E E L > O   O N B V C A Z , Q.Q.Q.Q.Q.Q.Q.Q.Q.Q.Q.. ",
". Q.Q.Q.Q.J o.Q H 3 * #     N O & & ; Q.Q.Q.Q.Q.Q.Q.Q.Q.Q.Q.Q.. ",
". Q.Q.Q.Q.D Q J : Q.Q.@ % % # # 1 Q.Q.Q.Q.Q.Q.Q.Q.Q.Q.Q.Q.Q.Q.. ",
". Q.Q.Q.Q.= L 2 Q.Q.Q.Q.Q.Q.Q.Q.Q.Q.Q.Q.Q.Q.Q.Q.Q.Q.Q.Q.Q.Q.Q.. ",
". Q.Q.Q.Q.; 3 9 Q.Q.Q.Q.Q.Q.Q.Q.Q.Q.Q.Q.Q.Q.Q.Q.Q.Q.Q.Q.Q.Q.Q.. ",
". Q.Q.Q.Q.1 > Q.Q.Q.Q.Q.Q.Q.Q.Q.Q.Q.Q.Q.Q.Q.Q.Q.Q.Q.Q.Q.Q.Q.Q.. ",
". . . . . . . . . . . . . . . . . . . . . . . . . . . . . . . . "
};
