/* XPM */
static char * sip_communicator_32_xpm[] = {
"32 32 279 2",
"  	c None",
". 	c #63676E",
"+ 	c #A18A64",
"@ 	c #998060",
"# 	c #456290",
"$ 	c #D09A51",
"% 	c #3C5D8F",
"& 	c #3966A7",
"* 	c #826D5F",
"= 	c #AC8659",
"- 	c #3C5C8C",
"; 	c #3966A6",
"> 	c #386AB2",
", 	c #3968AB",
"' 	c #585862",
") 	c #425676",
"! 	c #3A639F",
"~ 	c #386AB1",
"{ 	c #3A537A",
"] 	c #395580",
"^ 	c #3A629C",
"/ 	c #3967AB",
"( 	c #576684",
"_ 	c #92795E",
": 	c #495972",
"< 	c #3A619B",
"[ 	c #B57E41",
"} 	c #F5AF4C",
"| 	c #FFC768",
"1 	c #9F8B6B",
"2 	c #557CB3",
"3 	c #4B6184",
"4 	c #FFBB56",
"5 	c #FEC565",
"6 	c #9A8260",
"7 	c #344055",
"8 	c #35445E",
"9 	c #58565A",
"0 	c #82664C",
"a 	c #435060",
"b 	c #E7B868",
"c 	c #FFC160",
"d 	c #FFB44B",
"e 	c #555B69",
"f 	c #335280",
"g 	c #3B67A5",
"h 	c #CA883A",
"i 	c #F19E35",
"j 	c #686566",
"k 	c #394D6C",
"l 	c #2D3E59",
"m 	c #2C3E5A",
"n 	c #2B3E5D",
"o 	c #60646C",
"p 	c #EFB55B",
"q 	c #FAAE46",
"r 	c #90795F",
"s 	c #4473B1",
"t 	c #4B7CBC",
"u 	c #507DB7",
"v 	c #DDA14E",
"w 	c #FFB852",
"x 	c #8F7E67",
"y 	c #385482",
"z 	c #355A8F",
"A 	c #366AB2",
"B 	c #3C70B6",
"C 	c #4174B9",
"D 	c #4779BB",
"E 	c #7F7E7E",
"F 	c #6A7483",
"G 	c #5986C0",
"H 	c #5E8BC3",
"I 	c #6490C5",
"J 	c #6A95C8",
"K 	c #A5906D",
"L 	c #CBA769",
"M 	c #3F5C86",
"N 	c #4374B7",
"O 	c #497ABB",
"P 	c #4E7FBD",
"Q 	c #5483C0",
"R 	c #5A88C2",
"S 	c #608DC4",
"T 	c #6591C6",
"U 	c #6994C7",
"V 	c #6692C6",
"W 	c #628EC4",
"X 	c #5F8CC4",
"Y 	c #818380",
"Z 	c #BB9C68",
"` 	c #4B6994",
" .	c #5C89C2",
"..	c #618EC4",
"+.	c #6792C7",
"@.	c #6893C7",
"#.	c #6691C6",
"$.	c #638FC5",
"%.	c #5F8CC3",
"&.	c #5C8AC2",
"*.	c #5786C1",
"=.	c #5584C0",
"-.	c #5779A5",
";.	c #ECBB68",
">.	c #A28D68",
",.	c #56759D",
"'.	c #5F8BC1",
").	c #757B8B",
"!.	c #947759",
"~.	c #8A7057",
"{.	c #8A7259",
"].	c #887C6F",
"^.	c #5C7495",
"/.	c #4F7DBB",
"(.	c #4E7EBD",
"_.	c #B39768",
":.	c #AD9266",
"<.	c #506F98",
"[.	c #5B89C2",
"}.	c #5B78A0",
"|.	c #8B7763",
"1.	c #B28959",
"2.	c #AD8657",
"3.	c #C59250",
"4.	c #F6AF4C",
"5.	c #FFBA55",
"6.	c #F8BD5E",
"7.	c #AA946F",
"8.	c #567095",
"9.	c #4274B7",
"0.	c #4072B6",
"a.	c #9A866A",
"b.	c #B9935D",
"c.	c #48648D",
"d.	c #5180BE",
"e.	c #4C7CBC",
"f.	c #4A7BBB",
"g.	c #4779BA",
"h.	c #4576B8",
"i.	c #6D7D8E",
"j.	c #ECBB69",
"k.	c #EAB968",
"l.	c #6C6F72",
"m.	c #3C68A5",
"n.	c #8A7D6F",
"o.	c #4672AE",
"p.	c #4476B9",
"q.	c #4274B8",
"r.	c #4173B7",
"s.	c #4071B5",
"t.	c #3F70B3",
"u.	c #3E68A5",
"v.	c #4D678D",
"w.	c #BC9A65",
"x.	c #FFB34A",
"y.	c #FFA736",
"z.	c #FE9923",
"A.	c #7C644F",
"B.	c #666162",
"C.	c #405B84",
"D.	c #3E68A3",
"E.	c #3E659C",
"F.	c #3E5F8F",
"G.	c #3C577F",
"H.	c #426089",
"I.	c #5071A1",
"J.	c #5D84B8",
"K.	c #5E7EA8",
"L.	c #7C716D",
"M.	c #7D6552",
"N.	c #B97C38",
"O.	c #CF8936",
"P.	c #AE7C43",
"Q.	c #3C5376",
"R.	c #3F587E",
"S.	c #33415A",
"T.	c #394C6A",
"U.	c #415F89",
"V.	c #4B72A6",
"W.	c #4E76AB",
"X.	c #5179AE",
"Y.	c #547CB1",
"Z.	c #577FB3",
"`.	c #5A82B6",
" +	c #977755",
".+	c #FF971D",
"++	c #F7911C",
"@+	c #38547D",
"#+	c #264B81",
"$+	c #5B5C65",
"%+	c #7E7265",
"&+	c #3C567E",
"*+	c #3C649C",
"=+	c #3F679F",
"-+	c #426AA1",
";+	c #456DA4",
">+	c #4870A7",
",+	c #4B73A9",
"'+	c #4E76AC",
")+	c #5077AB",
"!+	c #B17537",
"~+	c #FF8C0D",
"{+	c #8C6642",
"]+	c #3B5781",
"^+	c #2C5690",
"/+	c #28518A",
"(+	c #78604E",
"_+	c #FF9012",
":+	c #CF9143",
"<+	c #515C6F",
"[+	c #345687",
"}+	c #335C95",
"|+	c #365F97",
"1+	c #39629A",
"2+	c #3C659D",
"3+	c #3F689F",
"4+	c #426BA2",
"5+	c #456EA4",
"6+	c #42618E",
"7+	c #CA751D",
"8+	c #B2702D",
"9+	c #395A89",
"0+	c #325D99",
"a+	c #2E5892",
"b+	c #726459",
"c+	c #FD8301",
"d+	c #8B6441",
"e+	c #375379",
"f+	c #27518B",
"g+	c #2A538E",
"h+	c #2D5690",
"i+	c #305993",
"j+	c #365F98",
"k+	c #3A629A",
"l+	c #315384",
"m+	c #3B5E90",
"n+	c #3964A0",
"o+	c #34609B",
"p+	c #425E85",
"q+	c #505B6D",
"r+	c #1B437C",
"s+	c #1B4581",
"t+	c #1E4884",
"u+	c #214B86",
"v+	c #244E89",
"w+	c #2B548E",
"x+	c #2E5790",
"y+	c #315A92",
"z+	c #315382",
"A+	c #3F6394",
"B+	c #406BA7",
"C+	c #3B67A2",
"D+	c #385D93",
"E+	c #365077",
"F+	c #2A4775",
"G+	c #153E7B",
"H+	c #153F7C",
"I+	c #18427F",
"J+	c #1C4581",
"K+	c #1F4884",
"L+	c #224B86",
"M+	c #294C82",
"N+	c #2F4B75",
"O+	c #3B5F91",
"P+	c #436EAA",
"Q+	c #3D6092",
"R+	c #294774",
"S+	c #224476",
"T+	c #204377",
"U+	c #1D4378",
"V+	c #1F4377",
"W+	c #2B4773",
"X+	c #34598C",
"Y+	c #3C649D",
"Z+	c #36537E",
"`+	c #2F5283",
" @	c #375684",
".@	c #2E4B76",
"+@	c #334F78",
"                                                                ",
"                                            .                   ",
"                                            +                   ",
"                                            @                   ",
"                                          # $                   ",
"                                      % & * =                   ",
"                                  - ; > , ' )                   ",
"                                  ! > ~ { ] ^                   ",
"                                  / ( _ : > <                   ",
"                                  [ } | 1 2 3                   ",
"                                  4 | | 5 6 7 8 9 0             ",
"                                a b | c d e f g h i j           ",
"                          k l m n o p q r s t u v w x           ",
"                        y z A B C D E F G H I J K | L           ",
"                      M N O P Q R S T U V I W X Y | Z           ",
"                      `  ...+.@.#.$...%.&.R *.=.-.;.>.          ",
"                      ,.T $.'.).!.~.{.].^./.(.t O _.:.          ",
"                      <.[.}.|.1.2.3.4.5.6.7.8.9.0.a.b.          ",
"                      c.d./.e.f.g.h.i.j.| | k.l.m.n.            ",
"                        o.p.q.r.s.t.u.v.w.x.y.z.A.B.            ",
"                        C.D.E.F.G.H.I.J.K.L.M.N.O.P.            ",
"                Q.R.      S.T.U.V.W.X.Y.Z.`. +.+++              ",
"              @+#+$+%+    &+*+=+-+;+>+,+'+)+!+~+{+              ",
"            ]+^+/+(+_+:+<+[+}+|+1+2+3+4+5+6+7+8+                ",
"            9+0+a+b+c+d+e+f+g+h+i+}+j+k+*+l+                    ",
"            m+n+o+p+q+r+s+t+u+v+f+w+x+y+z+                      ",
"            A+B+C+D+E+F+G+H+I+J+K+L+M+N+                        ",
"            O+P+Q+      R+S+T+U+V+W+                            ",
"            X+Y+Z+                                              ",
"            `+ @                                                ",
"            .@+@                                                ",
"                                                                "};
