/* XPM */
static char * sip_communicator_16_xpm[] = {
"16 16 93 2",
"  	c None",
". 	c #404E67",
"+ 	c #475874",
"@ 	c #536888",
"# 	c #5B7397",
"$ 	c #576D90",
"% 	c #7191BD",
"& 	c #7698C5",
"* 	c #565F73",
"= 	c #7293BE",
"- 	c #465873",
"; 	c #7091BC",
"> 	c #8F765B",
", 	c #737C8A",
"' 	c #7597C4",
") 	c #4F617E",
"! 	c #DFB267",
"~ 	c #868786",
"{ 	c #6A8AB5",
"] 	c #486084",
"^ 	c #4C596E",
"/ 	c #FFC768",
"( 	c #838686",
"_ 	c #5D7BA7",
": 	c #496897",
"< 	c #3C6198",
"[ 	c #3D6093",
"} 	c #AE966C",
"| 	c #BF9B65",
"1 	c #708CB3",
"2 	c #5D7DAA",
"3 	c #41608F",
"4 	c #3965A6",
"5 	c #386AB2",
"6 	c #3869B1",
"7 	c #5D6675",
"8 	c #A8885D",
"9 	c #43536E",
"0 	c #466697",
"a 	c #3B5E92",
"b 	c #455168",
"c 	c #40567A",
"d 	c #3A66A5",
"e 	c #58739D",
"f 	c #6887B2",
"g 	c #3B6096",
"h 	c #3A639F",
"i 	c #4E5C76",
"j 	c #545D70",
"k 	c #3E5478",
"l 	c #4C6D9C",
"m 	c #617DA6",
"n 	c #4B6286",
"o 	c #75675F",
"p 	c #AE7C46",
"q 	c #F8A73E",
"r 	c #F6B85A",
"s 	c #5A687E",
"t 	c #466592",
"u 	c #6F727E",
"v 	c #D07F28",
"w 	c #FFA330",
"x 	c #FFB54D",
"y 	c #AB956D",
"z 	c #5F718A",
"A 	c #4F6B95",
"B 	c #5C769D",
"C 	c #747E8E",
"D 	c #FBAB3F",
"E 	c #FFBF5C",
"F 	c #FFC667",
"G 	c #ECB35C",
"H 	c #4C5B73",
"I 	c #7395C1",
"J 	c #BCA070",
"K 	c #FFC15F",
"L 	c #FEB751",
"M 	c #686F7C",
"N 	c #6E8EB8",
"O 	c #7B899C",
"P 	c #D4AF6C",
"Q 	c #FFC666",
"R 	c #FFBC58",
"S 	c #F0AB4C",
"T 	c #6F7177",
"U 	c #6E8DB9",
"V 	c #788BA5",
"W 	c #9A8468",
"X 	c #7F7569",
"Y 	c #647794",
"Z 	c #7496C3",
"` 	c #597094",
" .	c #5A7296",
". + @ # # # # # # # # $ # @ + . ",
"+ % & & & & & & & & & * = & % - ",
"@ & & & & & & & & & ; > , & & @ ",
"# & & & & & & & & ' ) ! ~ & & # ",
"# & & & & & & & { ] ^ / ( & & # ",
"# & & & & ' _ : < [ } | 1 & & # ",
"# & & & 2 3 4 5 6 7 8 9 = & & # ",
"# & & & 0 5 5 5 a b c d e & & # ",
"# & & f g 5 h i j k 5 5 l & & # ",
"# & & m n o p q r s 5 5 t & & # ",
"# & & u v w x / / y z A B & & # ",
"# & & C D E / / / F G H I & & # ",
"# & & I J / / / K L M N & & & # ",
"@ & & & O P Q R S T U & & & & @ ",
"+ % & & & V W X Y Z & & & & % - ",
". + @ # # # `  .# # # # # @ + . "};
