<?xml version="1.0" encoding="UTF-8" standalone="no"?>
<!-- Created with Inkscape (http://www.inkscape.org/) -->

<svg
   xmlns:dc="http://purl.org/dc/elements/1.1/"
   xmlns:cc="http://creativecommons.org/ns#"
   xmlns:rdf="http://www.w3.org/1999/02/22-rdf-syntax-ns#"
   xmlns:svg="http://www.w3.org/2000/svg"
   xmlns="http://www.w3.org/2000/svg"
   xmlns:sodipodi="http://sodipodi.sourceforge.net/DTD/sodipodi-0.dtd"
   xmlns:inkscape="http://www.inkscape.org/namespaces/inkscape"
   width="744.09448819"
   height="1052.3622047"
   id="svg2"
   sodipodi:version="0.32"
   inkscape:version="0.47 r22583"
   sodipodi:docname="gsm.svg"
   inkscape:output_extension="org.inkscape.output.svg.inkscape"
   version="1.1">
  <defs
     id="defs4">
    <inkscape:perspective
       sodipodi:type="inkscape:persp3d"
       inkscape:vp_x="0 : 526.18109 : 1"
       inkscape:vp_y="0 : 1000 : 0"
       inkscape:vp_z="744.09448 : 526.18109 : 1"
       inkscape:persp3d-origin="372.04724 : 350.78739 : 1"
       id="perspective47" />
    <inkscape:perspective
       id="perspective6124"
       inkscape:persp3d-origin="0.5 : 0.33333333 : 1"
       inkscape:vp_z="1 : 0.5 : 1"
       inkscape:vp_y="0 : 1000 : 0"
       inkscape:vp_x="0 : 0.5 : 1"
       sodipodi:type="inkscape:persp3d" />
    <linearGradient
       id="linearGradient3591">
      <stop
         style="stop-color:#ffffff;stop-opacity:1;"
         offset="0"
         id="stop3593" />
      <stop
         style="stop-color:#ffffff;stop-opacity:0;"
         offset="1"
         id="stop3595" />
    </linearGradient>
    <inkscape:perspective
       id="perspective6146"
       inkscape:persp3d-origin="0.5 : 0.33333333 : 1"
       inkscape:vp_z="1 : 0.5 : 1"
       inkscape:vp_y="0 : 1000 : 0"
       inkscape:vp_x="0 : 0.5 : 1"
       sodipodi:type="inkscape:persp3d" />
    <inkscape:perspective
       id="perspective3737"
       inkscape:persp3d-origin="0.5 : 0.33333333 : 1"
       inkscape:vp_z="1 : 0.5 : 1"
       inkscape:vp_y="0 : 1000 : 0"
       inkscape:vp_x="0 : 0.5 : 1"
       sodipodi:type="inkscape:persp3d" />
    <inkscape:perspective
       id="perspective6236"
       inkscape:persp3d-origin="0.5 : 0.33333333 : 1"
       inkscape:vp_z="1 : 0.5 : 1"
       inkscape:vp_y="0 : 1000 : 0"
       inkscape:vp_x="0 : 0.5 : 1"
       sodipodi:type="inkscape:persp3d" />
    <inkscape:perspective
       id="perspective3777"
       inkscape:persp3d-origin="0.5 : 0.33333333 : 1"
       inkscape:vp_z="1 : 0.5 : 1"
       inkscape:vp_y="0 : 1000 : 0"
       inkscape:vp_x="0 : 0.5 : 1"
       sodipodi:type="inkscape:persp3d" />
    <inkscape:perspective
       id="perspective3777-9"
       inkscape:persp3d-origin="0.5 : 0.33333333 : 1"
       inkscape:vp_z="1 : 0.5 : 1"
       inkscape:vp_y="0 : 1000 : 0"
       inkscape:vp_x="0 : 0.5 : 1"
       sodipodi:type="inkscape:persp3d" />
    <inkscape:perspective
       id="perspective3813"
       inkscape:persp3d-origin="0.5 : 0.33333333 : 1"
       inkscape:vp_z="1 : 0.5 : 1"
       inkscape:vp_y="0 : 1000 : 0"
       inkscape:vp_x="0 : 0.5 : 1"
       sodipodi:type="inkscape:persp3d" />
    <inkscape:perspective
       id="perspective3858"
       inkscape:persp3d-origin="0.5 : 0.33333333 : 1"
       inkscape:vp_z="1 : 0.5 : 1"
       inkscape:vp_y="0 : 1000 : 0"
       inkscape:vp_x="0 : 0.5 : 1"
       sodipodi:type="inkscape:persp3d" />
    <inkscape:perspective
       id="perspective3858-3"
       inkscape:persp3d-origin="0.5 : 0.33333333 : 1"
       inkscape:vp_z="1 : 0.5 : 1"
       inkscape:vp_y="0 : 1000 : 0"
       inkscape:vp_x="0 : 0.5 : 1"
       sodipodi:type="inkscape:persp3d" />
  </defs>
  <sodipodi:namedview
     id="base"
     pagecolor="#ffffff"
     bordercolor="#666666"
     borderopacity="1.0"
     gridtolerance="10000"
     guidetolerance="10"
     objecttolerance="10"
     inkscape:pageopacity="0.0"
     inkscape:pageshadow="2"
     inkscape:zoom="13.788817"
     inkscape:cx="189.89415"
     inkscape:cy="565.00196"
     inkscape:document-units="px"
     inkscape:current-layer="layer1"
     inkscape:window-width="1280"
     inkscape:window-height="756"
     inkscape:window-x="0"
     inkscape:window-y="0"
     showgrid="false"
     inkscape:window-maximized="0" />
  <metadata
     id="metadata7">
    <rdf:RDF>
      <cc:Work
         rdf:about="">
        <dc:format>image/svg+xml</dc:format>
        <dc:type
           rdf:resource="http://purl.org/dc/dcmitype/StillImage" />
        <dc:title></dc:title>
      </cc:Work>
    </rdf:RDF>
  </metadata>
  <g
     inkscape:label="Layer 1"
     inkscape:groupmode="layer"
     id="layer1">
    <path
       style="fill:#0079ff;fill-opacity:1;stroke:none"
       d="m 172.40025,467.16455 c -1.8479,0 -3.33704,1.3518 -3.33704,3.02925 l 0,4.03638 c 0,1.67473 1.48424,3.0248 3.32805,3.02925 l 0.54185,2.06392 2.99287,-1.9821 0.92033,-0.0865 c 1.84788,0 3.33704,-1.35181 3.33704,-3.02926 l 0,-4.03625 c 0,-1.67758 -1.48916,-3.02938 -3.33704,-3.02938 l -4.44647,0 z"
       id="rect3145-0-3"
       sodipodi:nodetypes="ccccccccccc"
       inkscape:export-filename="/Users/yanastamcheva/workspace/trunk1/resources/images/impl/gui/common/smsSelected.png"
       inkscape:export-xdpi="147.98357"
       inkscape:export-ydpi="147.98357" />
    <g
       id="g3791"
       transform="translate(12.111263,-0.36261268)"
       inkscape:export-filename="/Users/yanastamcheva/workspace/trunk1/resources/images/impl/gui/common/sms.png"
       inkscape:export-xdpi="147.98357"
       inkscape:export-ydpi="147.98357">
      <path
         inkscape:export-ydpi="147.98357"
         inkscape:export-xdpi="147.98357"
         inkscape:export-filename="/Users/yanastamcheva/workspace/trunk1/resources/images/impl/gui/common/sms.png"
         sodipodi:nodetypes="ccccccccccc"
         id="rect3145"
         d="m 180.13358,467.69703 c -1.8479,0 -3.33704,1.3518 -3.33704,3.02925 l 0,4.03638 c 0,1.67473 1.48424,3.0248 3.32805,3.02925 l 0.54185,2.06392 2.99287,-1.9821 0.92033,-0.0865 c 1.84788,0 3.33704,-1.35181 3.33704,-3.02926 l 0,-4.03625 c 0,-1.67758 -1.48916,-3.02938 -3.33704,-3.02938 l -4.44647,0 z"
         style="fill:#474747;fill-opacity:0.76499999;stroke:none" />
      <path
         inkscape:export-ydpi="147.98357"
         inkscape:export-xdpi="147.98357"
         inkscape:export-filename="/Users/yanastamcheva/workspace/trunk1/resources/images/impl/gui/common/sms.png"
         sodipodi:nodetypes="cccccccccccccccccc"
         id="rect2162"
         d="m 180.77005,468.78335 c -0.48817,0 -0.89107,0.4029 -0.89107,0.89107 l 0,5.95149 c 0,0.48817 0.4029,0.89106 0.89107,0.89106 l 3.06003,0 c 0.48817,0 0.86759,-0.40289 0.86759,-0.89106 l 0,-5.95149 c 0,-0.48817 -0.37942,-0.89107 -0.86759,-0.89107 l -3.06003,0 z m 0.57839,0.57839 1.9276,0 c 0.42761,0 0.77119,0.34358 0.77119,0.77119 l 0,3.14101 c 0,0.42762 -0.34358,0.77119 -0.77119,0.77119 l -1.9276,0 c -0.42761,0 -0.77119,-0.34357 -0.77119,-0.77119 l 0,-3.14101 c 0,-0.42761 0.34358,-0.77119 0.77119,-0.77119 z"
         style="fill:#ffffff;fill-opacity:1;stroke:none" />
      <rect
         inkscape:export-ydpi="147.98357"
         inkscape:export-xdpi="147.98357"
         inkscape:export-filename="/Users/yanastamcheva/workspace/trunk1/resources/images/impl/gui/common/sms.png"
         ry="4.8737111"
         rx="4.8737106"
         y="474.6312"
         x="181.48154"
         height="1.2232263"
         width="1.7957498"
         id="rect5118"
         style="fill:#474747;fill-opacity:0.76470588;stroke:none" />
    </g>
    <path
       sodipodi:type="star"
       style="fill:#323232;fill-opacity:1;stroke:#323232;stroke-width:3;stroke-linecap:round;stroke-linejoin:round;stroke-miterlimit:4;stroke-opacity:1;stroke-dasharray:none"
       id="path3919"
       sodipodi:sides="3"
       sodipodi:cx="391.12592"
       sodipodi:cy="627.03607"
       sodipodi:r1="27.367224"
       sodipodi:r2="13.683612"
       sodipodi:arg1="0.022723361"
       sodipodi:arg2="1.0699209"
       inkscape:flatsided="false"
       inkscape:rounded="0"
       inkscape:randomized="0"
       d="m 418.48607,627.65789 -20.78937,11.38093 -20.78938,11.38093 0.53852,-23.69459 0.53851,-23.69459 20.25086,12.31366 20.25086,12.31366 z"
       transform="matrix(0.00188412,0.06285871,-0.09401515,0.00125973,261.41889,447.20767)"
       inkscape:export-filename="/Users/yanastamcheva/workspace/trunk1/resources/images/impl/gui/common/sms.png"
       inkscape:export-xdpi="147.98357"
       inkscape:export-ydpi="147.98357" />
    <path
       style="fill:#ffffff;fill-opacity:1;stroke:none"
       d="m 173.03672,468.25087 c -0.48817,0 -0.89107,0.4029 -0.89107,0.89107 l 0,5.95149 c 0,0.48817 0.4029,0.89106 0.89107,0.89106 l 3.06003,0 c 0.48817,0 0.86759,-0.40289 0.86759,-0.89106 l 0,-5.95149 c 0,-0.48817 -0.37942,-0.89107 -0.86759,-0.89107 l -3.06003,0 z m 0.57839,0.57839 1.9276,0 c 0.42761,0 0.77119,0.34358 0.77119,0.77119 l 0,3.14101 c 0,0.42762 -0.34358,0.77119 -0.77119,0.77119 l -1.9276,0 c -0.42761,0 -0.77119,-0.34357 -0.77119,-0.77119 l 0,-3.14101 c 0,-0.42761 0.34358,-0.77119 0.77119,-0.77119 z"
       id="rect2162-2-7"
       sodipodi:nodetypes="cccccccccccccccccc"
       inkscape:export-filename="/Users/yanastamcheva/workspace/trunk1/resources/images/impl/gui/common/smsSelected.png"
       inkscape:export-xdpi="147.98357"
       inkscape:export-ydpi="147.98357" />
    <rect
       style="fill:#0079ff;fill-opacity:1;stroke:none"
       id="rect5118-4-9"
       width="1.7957498"
       height="1.2232263"
       x="173.7482"
       y="474.09869"
       rx="4.8737106"
       ry="4.8737111"
       inkscape:export-filename="/Users/yanastamcheva/workspace/trunk1/resources/images/impl/gui/common/smsSelected.png"
       inkscape:export-xdpi="147.98357"
       inkscape:export-ydpi="147.98357" />
    <path
       sodipodi:type="star"
       style="fill:#323232;fill-opacity:1;stroke:#323232;stroke-width:3;stroke-linecap:round;stroke-linejoin:round;stroke-miterlimit:4;stroke-opacity:1;stroke-dasharray:none"
       id="path3919-0"
       sodipodi:sides="3"
       sodipodi:cx="391.12592"
       sodipodi:cy="627.03607"
       sodipodi:r1="27.367224"
       sodipodi:r2="13.683612"
       sodipodi:arg1="0.022723361"
       sodipodi:arg2="1.0699209"
       inkscape:flatsided="false"
       inkscape:rounded="0"
       inkscape:randomized="0"
       d="m 418.48607,627.65789 -20.78937,11.38093 -20.78938,11.38093 0.53852,-23.69459 0.53851,-23.69459 20.25086,12.31366 20.25086,12.31366 z"
       transform="matrix(0.00188422,0.06286199,-0.09402005,0.00125979,241.58716,447.20602)"
       inkscape:export-filename="/Users/yanastamcheva/workspace/trunk1/resources/images/impl/gui/common/smsSelected.png"
       inkscape:export-xdpi="147.98357"
       inkscape:export-ydpi="147.98357" />
    <path
       sodipodi:type="arc"
       style="fill:#555555;fill-opacity:1;stroke:none"
       id="path3848"
       sodipodi:cx="174.45296"
       sodipodi:cy="486.9765"
       sodipodi:rx="2.9371626"
       sodipodi:ry="2.8283789"
       d="m 177.39012,486.9765 a 2.9371626,2.8283789 0 1 1 -5.87433,0 2.9371626,2.8283789 0 1 1 5.87433,0 z"
       transform="matrix(0.85116158,0,0,0.88389854,25.528139,56.867061)"
       inkscape:export-filename="/Users/yanastamcheva/Desktop/typing2.png"
       inkscape:export-xdpi="72"
       inkscape:export-ydpi="72" />
    <path
       sodipodi:type="arc"
       style="fill:#707070;fill-opacity:1;stroke:none"
       id="path3848-2"
       sodipodi:cx="174.45296"
       sodipodi:cy="486.9765"
       sodipodi:rx="2.9371626"
       sodipodi:ry="2.8283789"
       d="m 177.39012,486.9765 a 2.9371626,2.8283789 0 1 1 -5.87433,0 2.9371626,2.8283789 0 1 1 5.87433,0 z"
       transform="matrix(0.85116158,0,0,0.88389854,34.528345,56.867364)"
       inkscape:export-filename="/Users/yanastamcheva/Desktop/typing1.png"
       inkscape:export-xdpi="70.434128"
       inkscape:export-ydpi="70.434128" />
    <path
       sodipodi:type="arc"
       style="fill:#707070;fill-opacity:1;stroke:none"
       id="path3848-9"
       sodipodi:cx="174.45296"
       sodipodi:cy="486.9765"
       sodipodi:rx="2.9371626"
       sodipodi:ry="2.8283789"
       d="m 177.39012,486.9765 a 2.9371626,2.8283789 0 1 1 -5.87433,0 2.9371626,2.8283789 0 1 1 5.87433,0 z"
       transform="matrix(0.85116158,0,0,0.88389854,43.528345,56.867364)"
       inkscape:export-filename="/Users/yanastamcheva/Desktop/typing1.png"
       inkscape:export-xdpi="70.434128"
       inkscape:export-ydpi="70.434128" />
  </g>
</svg>
